<?xml version="1.0" ?><svg id="Layer_1" style="enable-background:new 0 0 74 74;" version="1.1" viewBox="0 0 74 74" xml:space="preserve" xmlns="http://www.w3.org/2000/svg" xmlns:xlink="http://www.w3.org/1999/xlink"><style type="text/css">
	.st0{fill:#2B3033;}
</style><g><path class="st0" d="M72.4,63l-6.6-6.6c-0.8-0.8-2-0.8-2.8,0c-0.8,0.8-0.8,2,0,2.8l3.2,3.2H11.6V7.8l3.2,3.2   c0.4,0.4,0.9,0.6,1.4,0.6c0.5,0,1-0.2,1.4-0.6c0.8-0.8,0.8-2,0-2.8L11,1.6c-0.8-0.8-2.1-0.8-2.8,0L1.6,8.2c-0.8,0.8-0.8,2,0,2.8   c0.8,0.8,2,0.8,2.8,0l3.2-3.2v56.6c0,1.1,0.9,2,2,2h56.6L63,69.6c-0.8,0.8-0.8,2,0,2.8c0.4,0.4,0.9,0.6,1.4,0.6   c0.5,0,1-0.2,1.4-0.6l6.6-6.6c0.4-0.4,0.6-0.9,0.6-1.4S72.8,63.3,72.4,63z"/><path class="st0" d="M16.2,36.2c0,1.1,0.8,2,1.9,2.1c0.1,0,0.3,0,0.5,0c3.8,0,26.1-0.9,41.3-21.5l0.6,4.2c0.1,1,1,1.7,2,1.7   c0.1,0,0.2,0,0.3,0c1.1-0.1,1.9-1.1,1.7-2.2L63.2,11c-0.1-0.5-0.3-1-0.8-1.3c-0.4-0.3-1-0.5-1.5-0.4l-9.4,1.2   c-1.1,0.1-1.9,1.1-1.7,2.2c0.1,1.1,1.2,1.9,2.2,1.7l5.1-0.7C42,34.7,18.6,34.3,18.2,34.2C17.1,34.2,16.2,35.1,16.2,36.2z"/><path class="st0" d="M21.8,47.7v7.5c0,1.1,0.9,2,2,2s2-0.9,2-2v-7.5c0-1.1-0.9-2-2-2S21.8,46.6,21.8,47.7z"/><path class="st0" d="M32.4,43.5v11.7c0,1.1,0.9,2,2,2s2-0.9,2-2V43.5c0-1.1-0.9-2-2-2S32.4,42.4,32.4,43.5z"/><path class="st0" d="M43,38.9v16.3c0,1.1,0.9,2,2,2s2-0.9,2-2V38.9c0-1.1-0.9-2-2-2S43,37.8,43,38.9z"/><path class="st0" d="M53.6,32v23.2c0,1.1,0.9,2,2,2s2-0.9,2-2V32c0-1.1-0.9-2-2-2S53.6,30.9,53.6,32z"/></g></svg>