<?xml version="1.0" ?><svg id="Layer_1" style="enable-background:new 0 0 50 50;" version="1.1" viewBox="0 0 50 50" xml:space="preserve" xmlns="http://www.w3.org/2000/svg" xmlns:xlink="http://www.w3.org/1999/xlink"><style type="text/css">
	.st0{fill:#414042;}
</style><g><ellipse class="st0" cx="44.6" cy="17.2" rx="2.9" ry="2.8"/><path class="st0" d="M37.3,31.3c0,0,1.4-1.8-0.5-2.8S30.1,25,30.1,25s-0.9,1.4-0.3,3l3.4,2.3l-5.5,5.6L21,33.5   c1.8-1.1,3.6-2.1,4.3-2.5c1.5-0.8,1.5-1.8,1.5-1.8c1-5,4.2-7.1,6.9-8L43,33.1l1.9-0.7c0.7-6.1-2.5-11.5-2.5-11.5l-2.7,1.5   c2,2.5,2.7,7.7,2.7,7.7l-7.2-9.1c1.5-0.3,2.7-0.2,2.7-0.2c4.9-0.4,1.4-3.7,1.4-3.7c-6.6-6.8-17-3.2-17-3.2L11.1,4.9l-0.2,1.7   l12.2,9.8c8.4-1.5,10.9,1.2,10.9,1.2c-9.4,1.1-11,10.2-11,10.2c-1.6,0.5-8,4.6-9.9,5.8l-9.6-5.6l-0.7,1.3l26.8,15.7l1.7-0.7   L17,35.8c0.6-0.4,1.5-0.9,2.5-1.4l24,8.7l2.1-0.9l-13.8-4.9L37.3,31.3z"/></g></svg>