<svg id="svg" version="1.1" width="400" height="116.00000000000001" viewBox="0 0 400 116.00000000000001" xmlns="http://www.w3.org/2000/svg" xmlns:xlink="http://www.w3.org/1999/xlink" ><g id="svgg"><path id="path0" d="M42.250 0.310 C 41.070 0.671,39.500 1.475,39.500 1.718 C 39.500 1.812,39.456 1.845,39.403 1.791 C 39.191 1.580,36.836 3.880,36.382 4.742 C 36.240 5.012,36.021 5.336,35.895 5.462 C 35.770 5.587,35.621 5.872,35.566 6.095 C 35.510 6.318,35.397 6.500,35.315 6.500 C 35.234 6.500,35.167 6.650,35.167 6.833 C 35.167 7.017,35.092 7.167,35.000 7.167 C 34.908 7.167,34.833 7.307,34.833 7.480 C 34.833 7.652,34.722 7.885,34.585 7.998 C 34.449 8.112,34.378 8.271,34.428 8.352 C 34.479 8.433,34.440 8.500,34.343 8.500 C 34.246 8.500,34.167 8.650,34.167 8.833 C 34.167 9.017,34.100 9.167,34.018 9.167 C 33.872 9.167,33.355 10.306,33.243 10.875 C 33.212 11.035,33.075 11.325,32.939 11.519 C 32.803 11.713,32.736 11.988,32.791 12.130 C 32.856 12.298,32.823 12.347,32.697 12.269 C 32.571 12.191,32.538 12.239,32.603 12.408 C 32.658 12.551,32.615 12.667,32.508 12.667 C 32.401 12.667,32.356 12.735,32.408 12.819 C 32.460 12.903,32.441 12.997,32.366 13.027 C 32.292 13.058,31.724 14.096,31.105 15.333 C 30.486 16.571,29.801 17.880,29.584 18.242 C 29.366 18.604,29.219 18.950,29.257 19.011 C 29.295 19.072,29.179 19.255,29.000 19.417 C 28.821 19.579,28.715 19.776,28.764 19.856 C 28.813 19.935,28.779 20.000,28.689 20.000 C 28.599 20.000,28.441 20.256,28.338 20.569 C 28.235 20.881,28.037 21.181,27.898 21.234 C 27.759 21.287,27.692 21.407,27.749 21.499 C 27.806 21.591,27.783 21.667,27.697 21.667 C 27.611 21.667,27.441 21.910,27.319 22.208 C 27.197 22.506,27.000 22.849,26.882 22.970 C 26.764 23.091,26.667 23.298,26.667 23.429 C 26.667 23.560,26.587 23.667,26.490 23.667 C 26.393 23.667,26.360 23.742,26.417 23.833 C 26.473 23.925,26.440 24.000,26.343 24.000 C 26.246 24.000,26.167 24.078,26.167 24.174 C 26.167 24.269,26.088 24.438,25.991 24.549 C 25.694 24.890,24.690 26.394,24.465 26.833 C 24.348 27.063,24.089 27.430,23.890 27.651 C 23.690 27.871,23.254 28.518,22.920 29.088 C 22.587 29.658,22.168 30.281,21.990 30.472 C 21.812 30.663,21.667 30.861,21.667 30.912 C 21.667 30.995,20.525 32.503,19.956 33.173 C 19.836 33.314,19.566 33.707,19.355 34.048 C 19.145 34.388,18.900 34.667,18.810 34.667 C 18.720 34.667,18.692 34.739,18.747 34.828 C 18.801 34.917,18.693 35.085,18.506 35.201 C 18.320 35.318,18.167 35.504,18.167 35.615 C 18.167 35.726,18.066 35.877,17.943 35.950 C 17.716 36.085,16.594 37.347,15.833 38.323 C 15.306 38.999,14.881 39.480,13.606 40.841 C 13.043 41.442,12.473 42.098,12.338 42.300 C 12.203 42.502,12.016 42.674,11.922 42.683 C 11.827 42.691,11.338 43.172,10.833 43.750 C 10.329 44.328,9.856 44.809,9.781 44.817 C 9.706 44.826,9.290 45.197,8.857 45.642 C 8.424 46.087,7.901 46.541,7.697 46.651 C 7.492 46.760,7.368 46.921,7.422 47.008 C 7.476 47.095,7.417 47.167,7.291 47.167 C 7.165 47.167,6.842 47.399,6.573 47.682 C 6.304 47.966,5.652 48.501,5.125 48.873 C 4.598 49.244,4.167 49.599,4.167 49.661 C 4.167 49.790,2.869 50.667,2.678 50.667 C 2.608 50.667,2.418 50.815,2.254 50.996 C 2.090 51.177,1.509 51.609,0.962 51.954 L -0.030 52.583 0.058 54.333 C 0.143 56.016,0.409 57.304,0.716 57.519 C 0.796 57.575,0.850 57.671,0.836 57.733 C 0.780 57.971,1.572 59.438,1.984 59.859 C 2.222 60.102,2.505 60.402,2.612 60.525 C 3.721 61.799,5.932 62.767,7.958 62.864 C 8.348 62.883,8.667 62.967,8.667 63.051 C 8.667 63.135,8.947 63.155,9.292 63.095 C 9.635 63.036,10.367 62.926,10.917 62.852 C 12.346 62.658,14.165 62.187,14.565 61.907 C 14.753 61.775,15.032 61.667,15.183 61.667 C 15.335 61.667,15.552 61.555,15.665 61.419 C 15.778 61.282,15.928 61.206,15.998 61.249 C 16.068 61.292,16.434 61.103,16.812 60.830 C 17.190 60.556,17.537 60.333,17.583 60.334 C 17.766 60.338,19.485 59.303,19.674 59.075 C 19.784 58.942,19.977 58.833,20.104 58.833 C 20.230 58.833,20.333 58.746,20.333 58.639 C 20.333 58.532,20.377 58.488,20.430 58.541 C 20.483 58.594,20.403 59.263,20.251 60.027 C 20.100 60.791,19.962 61.529,19.946 61.667 C 19.930 61.804,19.873 61.954,19.820 62.000 C 19.725 62.082,19.207 64.480,18.426 68.453 C 18.206 69.573,17.984 70.558,17.931 70.643 C 17.879 70.728,17.806 71.086,17.769 71.440 C 17.733 71.794,17.658 72.271,17.604 72.500 C 17.504 72.924,17.401 73.688,17.224 75.333 C 17.170 75.837,17.069 76.362,16.999 76.500 C 16.930 76.637,16.886 77.069,16.901 77.458 C 16.916 77.848,16.872 78.167,16.803 78.167 C 16.734 78.167,16.700 78.657,16.728 79.257 C 16.756 79.857,16.717 80.386,16.640 80.433 C 16.564 80.480,16.530 82.446,16.565 84.801 C 16.625 88.814,16.683 89.802,16.921 90.833 C 16.974 91.063,17.090 91.737,17.179 92.333 C 17.437 94.063,17.803 95.655,18.251 96.994 C 18.480 97.678,18.667 98.335,18.667 98.452 C 18.667 98.570,18.742 98.667,18.833 98.667 C 18.925 98.667,18.983 98.723,18.961 98.792 C 18.894 99.007,19.700 101.000,19.854 101.000 C 19.934 101.000,19.988 101.056,19.973 101.125 C 19.921 101.364,20.656 102.833,20.827 102.833 C 20.922 102.833,20.981 102.897,20.958 102.974 C 20.912 103.132,21.888 104.698,22.274 105.083 C 22.411 105.221,22.484 105.333,22.435 105.333 C 22.319 105.333,22.696 105.757,24.421 107.563 C 25.198 108.377,25.833 108.986,25.833 108.916 C 25.833 108.846,25.989 108.986,26.179 109.228 C 26.369 109.469,26.634 109.667,26.767 109.667 C 26.901 109.667,27.053 109.779,27.106 109.916 C 27.159 110.053,27.264 110.126,27.341 110.079 C 27.417 110.032,27.540 110.099,27.615 110.228 C 27.763 110.486,30.289 111.832,30.625 111.833 C 30.740 111.833,30.833 111.908,30.833 112.000 C 30.833 112.092,30.890 112.155,30.958 112.140 C 31.027 112.126,31.196 112.159,31.333 112.214 C 32.031 112.495,34.130 113.068,34.458 113.066 C 34.665 113.065,34.833 113.133,34.833 113.217 C 34.833 113.301,35.096 113.339,35.417 113.302 C 35.737 113.264,36.000 113.293,36.000 113.366 C 36.000 113.545,42.700 113.435,42.998 113.251 C 43.127 113.171,43.387 113.088,43.575 113.065 C 44.054 113.009,45.252 112.724,46.333 112.409 C 46.837 112.262,47.344 112.135,47.458 112.127 C 47.573 112.118,47.667 112.058,47.667 111.994 C 47.667 111.929,48.023 111.778,48.458 111.658 C 49.202 111.453,51.818 110.242,52.000 110.019 C 52.046 109.963,52.383 109.767,52.750 109.585 C 53.117 109.403,53.477 109.159,53.550 109.043 C 53.623 108.928,53.792 108.833,53.925 108.833 C 54.058 108.833,54.301 108.699,54.464 108.536 C 54.628 108.372,55.059 108.055,55.423 107.832 C 55.786 107.608,56.250 107.261,56.453 107.059 C 56.656 106.857,56.961 106.648,57.131 106.595 C 57.301 106.541,57.606 106.272,57.808 105.998 C 58.011 105.724,58.251 105.500,58.341 105.500 C 58.432 105.500,58.842 105.149,59.253 104.720 C 59.664 104.291,60.000 103.988,60.000 104.046 C 60.000 104.103,60.206 103.958,60.458 103.722 C 60.710 103.486,60.892 103.208,60.861 103.105 C 60.831 103.001,60.857 102.968,60.921 103.032 C 61.061 103.172,61.747 102.558,61.758 102.282 C 61.762 102.173,61.854 102.102,61.963 102.124 C 62.071 102.146,62.288 101.959,62.443 101.707 C 62.599 101.456,62.994 100.987,63.321 100.664 C 63.867 100.128,64.853 99.031,65.789 97.920 C 65.993 97.677,66.290 97.259,66.449 96.989 C 66.608 96.720,66.796 96.500,66.867 96.500 C 66.938 96.500,67.202 96.181,67.454 95.792 C 67.707 95.402,67.955 95.046,68.006 95.000 C 68.058 94.954,68.282 94.655,68.506 94.336 C 68.729 94.016,69.026 93.633,69.164 93.484 C 69.584 93.033,70.750 91.330,70.750 91.167 C 70.750 91.083,70.877 90.917,71.033 90.799 C 71.188 90.680,71.338 90.475,71.366 90.343 C 71.394 90.211,71.597 89.894,71.816 89.638 C 72.258 89.124,72.606 88.571,72.767 88.125 C 72.825 87.965,72.930 87.833,73.000 87.833 C 73.070 87.833,73.169 87.702,73.220 87.542 C 73.334 87.185,73.840 86.343,74.130 86.029 C 74.248 85.902,74.495 85.525,74.679 85.191 C 74.864 84.857,75.309 84.096,75.668 83.500 C 76.028 82.904,76.493 82.079,76.703 81.667 C 76.912 81.254,77.121 80.879,77.167 80.833 C 77.275 80.725,77.666 80.015,78.359 78.667 C 78.666 78.071,78.954 77.546,79.000 77.500 C 79.199 77.301,79.500 76.650,79.500 76.419 C 79.500 76.280,79.575 76.167,79.667 76.167 C 79.758 76.167,79.833 76.012,79.833 75.823 C 79.833 75.635,79.900 75.521,79.981 75.571 C 80.115 75.655,80.542 74.860,80.529 74.549 C 80.526 74.476,80.706 74.178,80.929 73.886 C 81.151 73.594,81.333 73.205,81.333 73.021 C 81.333 72.837,81.403 72.643,81.488 72.591 C 81.573 72.538,81.929 71.915,82.280 71.206 C 82.630 70.497,82.973 69.892,83.043 69.861 C 83.112 69.830,83.126 69.736,83.075 69.652 C 83.023 69.569,83.060 69.500,83.157 69.500 C 83.254 69.500,83.333 69.364,83.333 69.199 C 83.333 69.033,83.443 68.751,83.578 68.574 C 83.713 68.396,83.825 68.119,83.828 67.958 C 83.831 67.798,83.903 67.667,83.989 67.667 C 84.074 67.667,84.192 67.498,84.250 67.292 C 84.403 66.752,84.895 65.760,85.043 65.694 C 85.112 65.663,85.126 65.570,85.075 65.486 C 85.023 65.402,85.060 65.333,85.157 65.333 C 85.254 65.333,85.333 65.250,85.333 65.149 C 85.333 65.047,85.550 64.504,85.814 63.940 C 86.401 62.693,87.045 61.280,87.079 61.167 C 87.092 61.121,87.221 60.814,87.365 60.485 C 87.509 60.157,87.678 59.725,87.741 59.527 C 87.804 59.329,87.926 59.167,88.011 59.167 C 88.097 59.167,88.155 59.110,88.141 59.042 C 88.127 58.973,88.248 58.617,88.411 58.250 C 88.819 57.329,89.044 56.780,89.093 56.583 C 89.116 56.492,89.275 56.108,89.448 55.730 L 89.761 55.043 89.693 56.730 C 89.517 61.097,89.680 66.966,90.059 69.917 C 90.130 70.467,90.217 71.142,90.252 71.417 C 90.288 71.692,90.364 72.404,90.422 73.000 C 90.480 73.596,90.596 74.346,90.679 74.667 C 90.763 74.987,90.832 75.456,90.832 75.708 C 90.833 75.960,90.908 76.167,91.000 76.167 C 91.092 76.167,91.151 76.223,91.133 76.292 C 91.055 76.581,91.627 78.854,92.003 79.750 C 92.080 79.933,92.233 80.383,92.342 80.750 C 92.452 81.117,92.728 81.829,92.956 82.333 C 93.185 82.837,93.386 83.325,93.404 83.417 C 93.493 83.869,93.703 84.333,93.818 84.333 C 93.965 84.333,94.407 85.184,94.361 85.380 C 94.344 85.451,94.443 85.553,94.581 85.605 C 94.719 85.658,94.790 85.769,94.739 85.851 C 94.688 85.933,94.726 86.000,94.823 86.000 C 94.921 86.000,95.000 86.072,95.000 86.159 C 95.000 86.980,98.686 90.712,100.417 91.644 C 100.783 91.842,101.196 92.070,101.333 92.151 C 101.471 92.233,101.921 92.436,102.333 92.603 C 102.746 92.771,103.121 92.955,103.167 93.012 C 103.261 93.131,103.535 93.205,105.417 93.625 C 106.150 93.788,106.825 93.963,106.917 94.014 C 107.149 94.144,107.881 94.211,109.291 94.232 C 109.956 94.242,110.500 94.292,110.500 94.344 C 110.500 94.430,111.197 94.427,114.292 94.329 C 114.865 94.311,115.333 94.239,115.333 94.170 C 115.333 94.101,115.570 94.071,115.858 94.105 C 116.147 94.138,116.466 94.098,116.567 94.015 C 116.668 93.932,117.125 93.805,117.583 93.732 C 118.042 93.659,118.454 93.590,118.500 93.579 C 118.546 93.567,118.865 93.499,119.210 93.427 C 119.555 93.354,119.876 93.232,119.924 93.155 C 119.972 93.078,120.121 93.057,120.255 93.108 C 120.390 93.160,120.500 93.119,120.500 93.018 C 120.500 92.916,120.610 92.833,120.744 92.833 C 121.256 92.833,123.302 92.022,124.500 91.345 C 124.638 91.267,125.181 91.005,125.708 90.763 C 126.235 90.521,126.667 90.238,126.667 90.134 C 126.667 90.030,126.716 89.994,126.777 90.055 C 126.838 90.115,127.133 89.978,127.433 89.749 C 127.732 89.520,128.058 89.333,128.156 89.333 C 128.253 89.333,128.333 89.260,128.333 89.170 C 128.333 89.080,128.624 88.858,128.979 88.677 C 129.335 88.496,129.670 88.232,129.724 88.090 C 129.778 87.949,129.901 87.833,129.997 87.833 C 130.245 87.833,133.667 84.459,133.667 84.214 C 133.667 84.103,133.808 83.936,133.980 83.844 C 134.153 83.752,134.442 83.376,134.624 83.009 C 134.805 82.643,134.986 82.375,135.026 82.415 C 135.065 82.454,135.282 82.134,135.507 81.702 C 135.732 81.271,136.085 80.638,136.292 80.295 C 136.498 79.953,136.667 79.565,136.667 79.432 C 136.667 79.299,136.785 79.073,136.929 78.929 C 137.073 78.785,137.138 78.667,137.075 78.667 C 137.011 78.667,137.040 78.570,137.138 78.451 C 137.236 78.333,137.535 77.564,137.803 76.743 C 139.232 72.358,139.066 67.986,137.383 65.708 C 137.163 65.410,137.038 65.167,137.105 65.167 C 137.172 65.167,136.975 64.942,136.667 64.667 C 136.359 64.392,136.008 64.167,135.887 64.167 C 135.766 64.167,135.667 64.085,135.667 63.986 C 135.667 63.887,135.573 63.839,135.458 63.880 C 135.344 63.921,135.110 63.883,134.938 63.794 C 134.632 63.636,134.458 63.747,133.623 64.637 C 133.510 64.758,133.272 64.983,133.096 65.137 C 132.920 65.291,132.383 65.810,131.902 66.292 C 131.422 66.773,130.956 67.167,130.867 67.167 C 130.778 67.167,130.434 67.467,130.103 67.834 C 129.771 68.201,129.500 68.448,129.500 68.382 C 129.500 68.317,129.243 68.523,128.930 68.840 C 128.292 69.485,127.101 70.488,126.666 70.747 C 125.909 71.197,125.000 71.893,125.000 72.022 C 125.000 72.102,124.899 72.167,124.776 72.167 C 124.653 72.167,124.409 72.325,124.234 72.518 C 124.060 72.712,123.485 73.088,122.958 73.354 C 122.431 73.620,122.000 73.900,122.000 73.976 C 122.000 74.114,121.814 74.178,119.501 74.842 C 116.929 75.581,115.293 74.994,114.044 72.884 C 113.675 72.260,113.318 71.412,113.251 71.000 C 113.184 70.587,113.071 70.175,113.000 70.083 C 112.844 69.882,112.535 67.587,112.416 65.750 C 112.369 65.017,112.287 63.854,112.234 63.167 C 112.181 62.479,112.141 61.450,112.145 60.880 C 112.149 60.310,112.088 59.804,112.009 59.756 C 111.931 59.707,111.856 58.700,111.844 57.518 C 111.831 56.336,111.793 55.226,111.760 55.052 C 111.726 54.878,111.652 51.176,111.595 46.826 C 111.513 40.550,111.380 34.281,111.288 32.375 C 111.282 32.260,111.216 32.167,111.141 32.167 C 111.066 32.167,111.038 31.832,111.080 31.423 C 111.121 31.014,111.082 30.634,110.994 30.580 C 110.906 30.525,110.834 30.279,110.834 30.032 C 110.836 29.456,110.301 26.610,110.171 26.500 C 110.117 26.454,110.068 26.304,110.063 26.167 C 110.059 26.029,110.011 25.804,109.958 25.667 C 109.626 24.808,109.213 23.498,109.202 23.269 C 109.198 23.187,109.132 23.075,109.054 23.019 C 108.977 22.963,108.732 22.523,108.511 22.042 C 108.290 21.560,108.048 21.167,107.972 21.167 C 107.896 21.167,107.833 21.069,107.833 20.949 C 107.833 20.829,107.496 20.369,107.083 19.926 C 106.671 19.483,106.333 19.062,106.333 18.990 C 106.333 18.919,106.069 18.697,105.746 18.497 C 105.422 18.297,105.063 18.039,104.947 17.923 C 103.425 16.401,98.630 15.922,95.895 17.018 C 95.128 17.326,94.500 17.677,94.500 17.799 C 94.500 17.920,94.425 17.973,94.333 17.917 C 94.242 17.860,94.167 17.893,94.167 17.990 C 94.167 18.087,94.082 18.167,93.978 18.167 C 93.718 18.167,92.500 19.368,92.500 19.625 C 92.500 19.740,92.441 19.833,92.369 19.833 C 92.220 19.833,90.869 21.837,90.865 22.065 C 90.863 22.146,90.786 22.260,90.693 22.317 C 90.601 22.374,89.526 24.388,88.304 26.793 C 87.083 29.198,85.954 31.406,85.796 31.699 C 85.639 31.993,85.433 32.425,85.340 32.658 C 85.248 32.892,85.101 33.196,85.014 33.333 C 84.928 33.471,84.814 33.696,84.760 33.833 C 84.707 33.971,84.326 34.711,83.915 35.478 C 83.503 36.245,83.167 36.969,83.167 37.085 C 83.167 37.202,83.069 37.335,82.949 37.381 C 82.830 37.427,82.627 37.782,82.499 38.171 C 82.370 38.560,82.187 38.961,82.091 39.064 C 81.995 39.166,81.692 39.737,81.417 40.333 C 81.142 40.929,80.879 41.454,80.833 41.500 C 80.624 41.710,80.167 42.660,80.167 42.887 C 80.167 43.025,80.110 43.164,80.042 43.194 C 79.973 43.225,79.711 43.663,79.459 44.167 C 79.207 44.671,78.928 45.196,78.838 45.333 C 78.748 45.471,78.497 45.958,78.279 46.417 C 78.062 46.875,77.498 47.987,77.025 48.887 C 76.553 49.787,76.167 50.623,76.167 50.744 C 76.167 50.865,76.053 51.008,75.915 51.061 C 75.777 51.114,75.677 51.216,75.692 51.287 C 75.735 51.479,75.053 52.947,74.869 53.061 C 74.781 53.115,74.541 53.611,74.335 54.163 C 74.128 54.715,73.894 55.167,73.813 55.167 C 73.733 55.167,73.667 55.243,73.667 55.337 C 73.667 55.430,73.465 55.824,73.219 56.212 C 72.973 56.599,72.782 57.056,72.794 57.227 C 72.806 57.398,72.774 57.496,72.722 57.444 C 72.671 57.393,72.461 57.666,72.255 58.051 C 71.387 59.671,71.186 60.026,71.016 60.231 C 70.917 60.350,70.886 60.497,70.946 60.557 C 71.006 60.617,70.964 60.667,70.851 60.667 C 70.739 60.667,70.693 60.742,70.750 60.833 C 70.807 60.925,70.781 61.000,70.693 61.000 C 70.605 61.000,70.451 61.206,70.352 61.458 C 70.179 61.897,69.843 62.490,69.667 62.667 C 69.554 62.780,69.023 63.747,68.550 64.700 C 68.336 65.131,68.086 65.530,67.994 65.587 C 67.902 65.644,67.633 66.073,67.396 66.542 C 67.158 67.010,66.859 67.498,66.731 67.627 C 66.602 67.755,66.536 67.923,66.583 67.999 C 66.630 68.076,66.606 68.163,66.530 68.194 C 66.403 68.245,65.167 70.262,65.167 70.417 C 65.167 70.453,64.979 70.685,64.750 70.932 C 64.521 71.180,64.333 71.454,64.333 71.542 C 64.333 71.630,64.141 71.930,63.906 72.210 C 63.575 72.604,63.528 72.748,63.698 72.856 C 63.863 72.961,63.845 72.996,63.625 72.997 C 63.465 72.999,63.333 73.104,63.333 73.232 C 63.333 73.360,63.221 73.508,63.083 73.560 C 62.946 73.613,62.833 73.759,62.833 73.886 C 62.833 74.012,62.683 74.251,62.500 74.417 C 62.317 74.583,62.167 74.813,62.167 74.929 C 62.167 75.044,62.110 75.164,62.042 75.194 C 61.973 75.225,61.618 75.700,61.252 76.250 C 60.887 76.800,60.512 77.305,60.419 77.372 C 60.326 77.440,60.309 77.496,60.382 77.497 C 60.454 77.499,60.434 77.594,60.337 77.708 C 59.644 78.526,59.334 78.930,59.334 79.016 C 59.333 79.070,59.146 79.333,58.917 79.599 C 58.688 79.865,58.500 80.140,58.500 80.208 C 58.500 80.277,58.386 80.465,58.247 80.625 C 57.681 81.277,56.529 82.800,56.351 83.133 C 56.246 83.329,55.975 83.690,55.747 83.936 C 55.519 84.181,55.333 84.455,55.333 84.544 C 55.333 84.633,55.052 84.991,54.708 85.340 C 53.797 86.264,52.910 87.374,52.958 87.531 C 52.981 87.605,52.934 87.667,52.853 87.667 C 52.648 87.667,51.333 88.964,51.333 89.166 C 51.333 89.258,51.221 89.333,51.083 89.333 C 50.946 89.333,50.833 89.408,50.833 89.500 C 50.833 89.592,50.732 89.667,50.609 89.667 C 50.486 89.667,50.257 89.808,50.101 89.981 C 49.945 90.153,49.464 90.389,49.033 90.505 C 48.602 90.621,48.179 90.780,48.092 90.858 C 47.872 91.055,47.167 91.037,47.167 90.833 C 47.167 90.742,47.022 90.667,46.844 90.667 C 46.667 90.667,46.311 90.580,46.053 90.473 C 45.794 90.367,45.527 90.292,45.458 90.306 C 45.390 90.321,45.333 90.272,45.333 90.197 C 45.333 90.122,45.108 89.808,44.833 89.500 C 44.558 89.192,44.333 88.845,44.333 88.728 C 44.333 88.612,44.240 88.457,44.125 88.383 C 43.920 88.252,43.549 87.406,43.408 86.750 C 43.368 86.567,43.290 86.229,43.234 86.000 C 43.178 85.771,43.124 85.452,43.114 85.292 C 43.103 85.131,43.050 85.000,42.994 85.000 C 42.665 85.000,42.649 74.649,42.977 74.083 C 43.122 73.833,43.166 73.534,43.250 72.198 C 43.292 71.527,43.358 70.927,43.397 70.864 C 43.436 70.801,43.513 70.337,43.568 69.833 C 43.658 69.009,43.880 67.651,44.072 66.750 C 44.111 66.567,44.187 66.112,44.241 65.741 C 44.294 65.369,44.490 64.319,44.675 63.407 C 44.860 62.496,45.035 61.600,45.064 61.417 C 45.093 61.233,45.159 60.971,45.211 60.833 C 45.352 60.463,45.833 57.879,45.833 57.497 C 45.833 57.315,45.900 57.167,45.982 57.167 C 46.065 57.167,46.168 56.885,46.212 56.542 C 46.257 56.198,46.339 55.729,46.394 55.500 C 46.450 55.271,46.576 54.671,46.674 54.167 C 46.773 53.663,46.898 53.137,46.953 53.000 C 47.008 52.862,47.038 52.686,47.021 52.607 C 47.003 52.529,47.056 52.379,47.140 52.274 C 47.223 52.169,47.427 51.352,47.593 50.458 C 47.759 49.565,47.951 48.833,48.020 48.833 C 48.089 48.833,48.144 48.702,48.141 48.542 C 48.138 48.381,48.179 48.100,48.232 47.917 C 48.285 47.733,48.457 46.946,48.613 46.167 C 48.770 45.387,48.948 44.712,49.008 44.667 C 49.100 44.597,49.393 43.541,49.568 42.645 C 49.822 41.353,49.891 41.061,49.978 40.917 C 50.033 40.825,50.081 40.637,50.083 40.500 C 50.086 40.362,50.140 40.170,50.202 40.072 C 50.322 39.884,50.417 39.498,50.714 38.000 C 50.814 37.496,50.938 37.046,50.989 37.000 C 51.093 36.908,51.198 36.557,51.239 36.164 C 51.254 36.025,51.310 35.837,51.363 35.747 C 51.453 35.596,51.570 35.125,51.740 34.225 C 51.777 34.028,51.923 33.503,52.063 33.058 C 52.556 31.498,52.833 30.459,52.833 30.175 C 52.833 30.018,52.887 29.835,52.952 29.770 C 53.018 29.704,53.094 29.448,53.121 29.200 C 53.149 28.953,53.183 28.656,53.197 28.542 C 53.211 28.427,53.276 28.333,53.343 28.333 C 53.464 28.333,53.615 27.687,53.761 26.548 C 53.804 26.209,53.924 25.880,54.028 25.816 C 54.131 25.752,54.172 25.588,54.119 25.450 C 54.066 25.312,54.070 25.152,54.127 25.095 C 54.238 24.984,54.285 24.777,54.415 23.833 C 54.708 21.703,54.902 20.572,54.986 20.500 C 55.040 20.454,55.099 20.229,55.117 20.000 C 55.136 19.771,55.222 18.983,55.308 18.250 C 55.478 16.818,55.447 10.850,55.265 9.750 C 55.099 8.748,55.068 8.605,54.961 8.333 C 54.907 8.196,54.776 7.708,54.671 7.250 C 54.565 6.792,54.368 6.246,54.232 6.037 C 54.097 5.828,54.031 5.584,54.086 5.495 C 54.141 5.406,54.115 5.333,54.028 5.333 C 53.941 5.333,53.749 5.031,53.601 4.661 C 53.002 3.165,50.728 1.115,48.917 0.439 C 47.656 -0.031,43.619 -0.109,42.250 0.310 " stroke="none" fill="#ec5353" fill-rule="evenodd"></path><path id="path1" d="M242.500 39.250 C 242.500 43.604,242.474 47.167,242.442 47.167 C 242.411 47.167,242.167 47.061,241.901 46.931 C 239.842 45.931,231.013 45.921,228.750 46.917 C 228.475 47.038,227.838 47.268,227.333 47.429 C 226.481 47.699,224.356 48.759,224.167 49.007 C 224.121 49.068,223.896 49.215,223.667 49.335 C 222.025 50.197,218.828 53.677,218.308 55.167 C 218.212 55.442,218.081 55.667,218.017 55.667 C 217.953 55.667,217.800 55.948,217.676 56.292 C 217.553 56.635,217.283 57.292,217.076 57.750 C 216.869 58.208,216.571 59.258,216.412 60.083 C 216.254 60.908,216.040 61.763,215.937 61.984 C 215.682 62.530,215.680 70.298,215.935 70.850 C 216.037 71.070,216.249 71.921,216.405 72.741 C 216.561 73.561,216.825 74.536,216.991 74.908 C 217.157 75.279,217.349 75.771,217.417 76.000 C 218.383 79.260,222.841 83.617,226.237 84.618 C 226.702 84.755,227.159 84.929,227.251 85.004 C 228.436 85.967,239.208 85.984,239.822 85.023 C 239.874 84.942,240.179 84.818,240.499 84.749 C 241.188 84.599,242.160 84.168,242.470 83.875 C 242.591 83.760,242.784 83.667,242.899 83.667 C 243.014 83.667,243.477 83.404,243.928 83.083 C 244.954 82.354,245.000 82.357,245.463 83.168 C 245.672 83.534,245.916 83.833,246.005 83.833 C 246.094 83.833,246.169 83.927,246.173 84.042 C 246.176 84.156,246.349 84.458,246.557 84.712 L 246.934 85.173 250.676 85.128 L 254.417 85.083 254.459 58.208 L 254.501 31.333 248.501 31.333 L 242.500 31.333 242.500 39.250 M166.699 51.156 C 166.739 64.341,166.795 68.029,166.958 68.192 C 167.073 68.306,167.167 68.635,167.167 68.922 C 167.167 69.668,167.783 72.987,167.965 73.220 C 168.050 73.328,168.207 73.780,168.315 74.223 C 168.983 76.960,171.976 81.134,174.250 82.499 C 174.617 82.719,174.954 82.947,175.000 83.005 C 175.190 83.248,177.979 84.493,178.750 84.680 C 179.208 84.791,179.662 84.943,179.759 85.018 C 180.054 85.246,182.811 85.670,184.714 85.781 C 185.703 85.838,186.551 85.948,186.599 86.026 C 186.713 86.210,191.120 86.210,191.234 86.026 C 191.282 85.948,192.130 85.838,193.119 85.780 C 195.033 85.668,197.973 85.220,198.250 84.997 C 198.342 84.923,198.876 84.744,199.438 84.599 C 200.324 84.370,202.345 83.443,203.663 82.661 C 204.896 81.930,207.667 79.297,207.667 78.856 C 207.667 78.761,207.766 78.623,207.888 78.550 C 208.010 78.477,208.291 78.079,208.513 77.667 C 208.735 77.254,208.967 76.878,209.028 76.832 C 209.090 76.785,209.297 76.335,209.489 75.832 C 209.681 75.328,209.939 74.729,210.063 74.500 C 210.187 74.271,210.417 73.521,210.574 72.833 C 210.731 72.146,210.930 71.433,211.017 71.250 C 211.616 69.987,211.714 67.365,211.786 50.706 L 211.856 34.329 205.637 34.373 L 199.417 34.417 199.333 50.417 C 199.274 61.891,199.197 66.511,199.061 66.750 C 198.957 66.933,198.715 67.657,198.524 68.357 C 197.739 71.224,195.655 73.172,192.833 73.676 C 192.237 73.782,191.620 73.936,191.461 74.018 C 191.077 74.215,187.913 74.209,187.262 74.010 C 186.980 73.924,186.080 73.701,185.262 73.514 C 184.443 73.327,183.731 73.107,183.679 73.027 C 183.626 72.946,183.348 72.759,183.059 72.611 C 182.324 72.235,180.859 70.561,180.483 69.667 C 180.309 69.254,180.086 68.778,179.988 68.607 C 179.305 67.429,179.274 66.717,179.177 50.250 L 179.083 34.417 172.866 34.373 L 166.648 34.329 166.699 51.156 M274.333 46.244 C 274.196 46.277,273.521 46.393,272.833 46.503 C 272.146 46.612,271.358 46.800,271.083 46.920 C 270.808 47.039,270.082 47.298,269.469 47.495 C 268.856 47.692,268.331 47.905,268.302 47.968 C 268.273 48.032,267.912 48.254,267.500 48.462 C 265.883 49.280,262.532 52.278,262.253 53.157 C 262.193 53.345,262.087 53.500,262.017 53.500 C 261.947 53.500,261.709 53.894,261.487 54.375 C 261.266 54.856,261.003 55.337,260.903 55.442 C 260.804 55.548,260.587 56.073,260.422 56.609 C 260.256 57.145,260.054 57.669,259.971 57.774 C 259.779 58.019,259.167 61.169,259.167 61.913 C 259.167 62.225,259.092 62.527,259.000 62.583 C 258.899 62.646,258.833 63.860,258.833 65.667 C 258.833 67.474,258.899 68.688,259.000 68.750 C 259.092 68.807,259.167 69.146,259.167 69.504 C 259.167 70.292,259.765 73.459,259.964 73.726 C 260.043 73.831,260.210 74.254,260.335 74.667 C 261.213 77.542,265.553 82.833,267.035 82.833 C 267.120 82.833,267.296 82.939,267.426 83.068 C 267.555 83.198,268.018 83.438,268.455 83.601 C 268.892 83.765,269.287 83.951,269.333 84.014 C 269.444 84.166,271.618 84.833,272.004 84.833 C 272.170 84.833,272.331 84.904,272.361 84.990 C 272.680 85.887,284.382 85.834,286.417 84.925 C 286.692 84.802,287.177 84.647,287.495 84.580 C 288.918 84.279,291.833 82.493,291.833 81.922 C 291.833 81.727,291.900 81.495,291.981 81.408 C 292.062 81.321,292.291 80.050,292.489 78.583 C 292.687 77.117,292.917 75.767,293.000 75.583 C 293.204 75.132,293.534 72.812,293.412 72.690 C 293.358 72.636,293.112 72.720,292.866 72.875 C 292.619 73.031,292.106 73.304,291.727 73.482 C 291.347 73.660,290.995 73.874,290.943 73.957 C 290.891 74.041,290.302 74.291,289.633 74.513 C 288.964 74.735,288.379 74.964,288.333 75.022 C 288.201 75.189,285.701 75.667,284.369 75.780 C 283.702 75.837,283.116 75.947,283.068 76.025 C 282.949 76.217,279.735 76.206,279.095 76.011 C 278.814 75.925,277.997 75.741,277.281 75.600 C 275.244 75.201,273.201 73.781,272.402 72.209 C 272.227 71.865,272.021 71.538,271.946 71.482 C 271.773 71.356,271.167 69.075,271.167 68.553 L 271.167 68.167 283.167 68.167 L 295.167 68.167 295.167 66.177 C 295.167 65.030,295.096 64.143,295.000 64.083 C 294.908 64.027,294.833 63.657,294.833 63.261 C 294.833 62.263,294.169 58.429,293.985 58.361 C 293.901 58.331,293.833 58.176,293.833 58.018 C 293.833 57.673,293.159 55.618,293.007 55.500 C 292.948 55.454,292.765 55.059,292.601 54.622 C 292.438 54.185,292.210 53.733,292.095 53.619 C 291.980 53.504,291.790 53.224,291.672 52.997 C 290.204 50.160,286.917 47.768,282.917 46.626 C 281.836 46.318,275.264 46.025,274.333 46.244 M317.416 46.397 C 316.774 46.520,315.911 46.770,315.499 46.951 C 315.087 47.132,314.487 47.384,314.167 47.509 C 313.846 47.635,313.321 47.905,313.000 48.109 C 311.873 48.826,310.787 49.586,310.485 49.869 C 310.194 50.141,310.157 50.123,309.715 49.488 C 309.459 49.121,309.081 48.633,308.875 48.402 C 308.669 48.172,308.500 47.930,308.500 47.866 C 308.500 47.802,308.321 47.542,308.103 47.289 L 307.706 46.827 303.561 46.872 L 299.417 46.917 299.417 66.000 L 299.417 85.083 305.375 85.127 L 311.333 85.171 311.333 72.240 C 311.333 59.059,311.343 58.833,311.904 58.833 C 311.956 58.833,312.468 58.612,313.041 58.342 C 316.792 56.575,321.079 57.542,322.237 60.417 C 322.694 61.549,322.734 62.439,322.823 73.500 L 322.917 85.083 328.883 85.127 L 334.850 85.171 334.824 72.241 L 334.798 59.311 335.328 58.920 C 335.620 58.705,336.190 58.431,336.596 58.312 C 337.001 58.192,337.333 58.042,337.333 57.979 C 337.333 57.739,339.672 57.459,341.107 57.528 C 343.359 57.636,344.964 58.631,345.591 60.310 C 345.750 60.735,345.947 61.169,346.029 61.274 C 346.363 61.701,346.489 65.432,346.494 75.042 L 346.500 85.167 352.425 85.167 L 358.350 85.167 358.300 71.744 C 358.264 62.196,358.197 58.287,358.066 58.202 C 357.965 58.137,357.830 57.671,357.766 57.167 C 357.628 56.089,357.184 54.287,357.026 54.167 C 356.965 54.121,356.814 53.783,356.691 53.417 C 355.883 51.016,353.528 48.466,351.203 47.475 C 350.770 47.290,350.178 47.032,349.887 46.901 C 347.770 45.948,341.046 45.972,338.846 46.941 C 336.315 48.055,334.769 48.991,333.065 50.442 C 332.119 51.248,331.903 51.315,331.755 50.848 C 331.620 50.422,329.232 48.167,328.916 48.167 C 328.779 48.167,328.667 48.101,328.667 48.021 C 328.667 47.940,328.273 47.713,327.792 47.515 C 327.310 47.317,326.778 47.077,326.607 46.982 C 325.457 46.337,319.655 45.968,317.416 46.397 M358.385 47.422 C 358.438 47.746,358.662 48.402,358.885 48.880 C 359.107 49.359,359.426 50.125,359.594 50.583 C 359.762 51.042,359.949 51.454,360.008 51.500 C 360.068 51.546,360.285 52.070,360.489 52.665 C 360.693 53.260,360.911 53.785,360.973 53.832 C 361.035 53.879,361.226 54.329,361.398 54.833 C 361.569 55.337,361.799 55.900,361.908 56.083 C 362.017 56.267,362.284 56.904,362.501 57.500 C 362.718 58.096,362.938 58.621,362.991 58.667 C 363.043 58.712,363.226 59.163,363.398 59.667 C 363.569 60.171,363.799 60.733,363.908 60.917 C 364.017 61.100,364.284 61.737,364.501 62.333 C 364.718 62.929,364.941 63.454,364.996 63.500 C 365.051 63.546,365.243 64.027,365.423 64.570 C 365.603 65.113,365.826 65.638,365.918 65.737 C 366.011 65.836,366.268 66.442,366.489 67.083 C 366.710 67.725,366.942 68.287,367.004 68.333 C 367.067 68.379,367.250 68.829,367.411 69.333 C 367.572 69.837,367.797 70.400,367.910 70.583 C 368.023 70.767,368.282 71.366,368.487 71.915 C 368.691 72.464,368.918 72.989,368.991 73.081 C 369.064 73.174,369.219 73.550,369.336 73.917 C 369.452 74.283,369.762 75.054,370.024 75.629 C 370.286 76.204,370.500 76.722,370.500 76.780 C 370.500 76.837,370.725 77.361,371.000 77.943 C 371.275 78.525,371.500 79.079,371.500 79.175 C 371.500 79.271,371.657 79.665,371.848 80.050 C 372.039 80.435,372.339 81.154,372.514 81.649 C 372.689 82.143,372.918 82.652,373.024 82.779 C 373.249 83.051,373.257 84.005,373.035 84.150 C 372.951 84.205,372.710 84.775,372.499 85.417 C 372.288 86.058,372.023 86.733,371.910 86.917 C 371.797 87.100,371.572 87.662,371.410 88.167 C 371.248 88.671,371.023 89.233,370.910 89.417 C 370.796 89.600,370.611 90.050,370.498 90.417 C 370.385 90.783,370.125 91.458,369.920 91.917 C 369.716 92.375,369.451 93.050,369.332 93.417 C 369.213 93.783,369.026 94.233,368.915 94.417 C 368.805 94.600,368.584 95.181,368.425 95.708 C 368.266 96.235,368.068 96.708,367.985 96.760 C 367.901 96.811,367.833 96.999,367.833 97.177 C 367.833 97.491,368.004 97.500,373.747 97.500 L 379.660 97.500 379.765 97.083 C 379.822 96.854,379.923 96.667,379.988 96.667 C 380.053 96.667,380.240 96.235,380.404 95.708 C 380.569 95.181,380.871 94.375,381.077 93.917 C 381.283 93.458,381.547 92.783,381.664 92.417 C 381.781 92.050,381.932 91.675,382.000 91.583 C 382.067 91.492,382.289 90.929,382.492 90.333 C 382.695 89.737,382.920 89.175,382.992 89.083 C 383.064 88.992,383.293 88.392,383.503 87.750 C 383.712 87.108,383.937 86.546,384.003 86.500 C 384.070 86.454,384.301 85.854,384.518 85.167 C 384.734 84.479,384.967 83.876,385.035 83.826 C 385.103 83.776,385.303 83.289,385.480 82.743 C 385.656 82.197,385.919 81.525,386.065 81.250 C 386.210 80.976,386.456 80.338,386.612 79.834 C 386.768 79.329,386.946 78.879,387.007 78.833 C 387.067 78.787,387.289 78.225,387.500 77.583 C 387.711 76.942,387.936 76.379,388.000 76.333 C 388.064 76.287,388.289 75.725,388.500 75.083 C 388.711 74.442,388.936 73.879,389.000 73.833 C 389.065 73.787,389.251 73.337,389.413 72.833 C 389.576 72.329,389.875 71.542,390.078 71.083 C 390.281 70.625,390.551 69.894,390.677 69.458 C 390.803 69.023,390.958 68.667,391.021 68.667 C 391.084 68.667,391.266 68.235,391.425 67.708 C 391.584 67.181,391.803 66.600,391.912 66.417 C 392.020 66.233,392.289 65.558,392.510 64.917 C 392.730 64.275,392.957 63.712,393.014 63.667 C 393.071 63.621,393.290 63.058,393.501 62.417 C 393.712 61.775,393.977 61.100,394.090 60.917 C 394.203 60.733,394.428 60.171,394.590 59.667 C 394.752 59.163,394.977 58.600,395.090 58.417 C 395.204 58.233,395.389 57.783,395.502 57.417 C 395.615 57.050,395.872 56.375,396.073 55.917 C 396.273 55.458,396.542 54.746,396.670 54.333 C 396.798 53.921,396.951 53.546,397.010 53.500 C 397.069 53.454,397.290 52.892,397.501 52.250 C 397.712 51.608,397.977 50.933,398.090 50.750 C 398.203 50.567,398.428 50.004,398.589 49.500 C 398.750 48.996,398.928 48.546,398.984 48.500 C 399.216 48.309,399.526 47.126,399.381 46.981 C 399.293 46.893,396.801 46.847,393.495 46.873 L 387.762 46.917 387.433 48.083 C 387.252 48.725,387.057 49.288,386.999 49.333 C 386.942 49.379,386.719 50.054,386.504 50.833 C 386.289 51.612,386.058 52.325,385.991 52.417 C 385.923 52.508,385.705 53.146,385.507 53.833 C 385.308 54.521,385.044 55.308,384.920 55.583 C 384.796 55.858,384.569 56.571,384.416 57.167 C 384.262 57.762,384.081 58.325,384.012 58.417 C 383.943 58.508,383.713 59.221,383.500 60.000 C 383.287 60.779,383.058 61.492,382.991 61.583 C 382.923 61.675,382.705 62.313,382.507 63.000 C 382.308 63.688,382.044 64.475,381.920 64.750 C 381.796 65.025,381.569 65.737,381.416 66.333 C 381.262 66.929,381.080 67.492,381.011 67.583 C 380.941 67.675,380.705 68.387,380.487 69.167 C 380.268 69.946,380.031 70.608,379.961 70.639 C 379.891 70.669,379.833 70.853,379.833 71.047 C 379.833 71.591,379.576 71.185,379.329 70.250 C 379.207 69.792,379.063 69.379,379.007 69.333 C 378.951 69.287,378.723 68.650,378.500 67.917 C 378.277 67.183,378.050 66.546,377.997 66.500 C 377.943 66.454,377.727 65.817,377.517 65.083 C 377.307 64.350,377.077 63.675,377.006 63.583 C 376.934 63.492,376.702 62.817,376.489 62.083 C 376.277 61.350,376.051 60.712,375.988 60.667 C 375.924 60.621,375.705 59.983,375.501 59.250 C 375.298 58.517,375.074 57.842,375.005 57.750 C 374.936 57.658,374.712 57.021,374.507 56.333 C 374.302 55.646,374.075 55.008,374.002 54.917 C 373.929 54.825,373.703 54.150,373.500 53.417 C 373.297 52.683,373.073 52.008,373.003 51.917 C 372.933 51.825,372.705 51.169,372.497 50.458 C 372.289 49.748,372.062 49.167,371.994 49.167 C 371.926 49.167,371.818 48.885,371.753 48.542 C 371.689 48.198,371.534 47.673,371.410 47.375 L 371.184 46.833 364.737 46.833 L 358.290 46.833 358.385 47.422 M280.412 55.573 C 280.960 55.702,281.435 55.888,281.468 55.987 C 281.501 56.086,281.628 56.167,281.750 56.167 C 282.263 56.167,283.833 57.868,284.341 58.974 C 284.621 59.584,284.923 60.216,285.012 60.379 C 285.101 60.541,285.220 61.010,285.276 61.420 L 285.379 62.167 278.273 62.167 C 272.582 62.167,271.167 62.124,271.167 61.952 C 271.167 61.364,271.736 59.674,272.173 58.963 C 272.445 58.522,272.667 58.120,272.667 58.070 C 272.667 57.890,273.928 56.757,274.667 56.273 C 276.063 55.359,278.328 55.083,280.412 55.573 M240.208 56.591 C 240.827 56.763,241.333 56.957,241.333 57.022 C 241.333 57.087,241.596 57.227,241.917 57.333 L 242.500 57.526 242.495 65.555 C 242.489 74.603,242.618 73.818,241.000 74.621 C 238.818 75.705,233.372 75.956,232.667 75.006 C 232.621 74.944,232.246 74.729,231.833 74.528 C 231.190 74.215,229.833 73.130,229.833 72.929 C 229.833 72.892,229.577 72.473,229.264 71.998 C 228.951 71.523,228.568 70.635,228.414 70.025 C 228.259 69.415,228.047 68.736,227.941 68.516 C 227.695 68.000,227.697 63.523,227.943 63.363 C 228.040 63.301,228.171 62.950,228.234 62.583 C 228.390 61.685,228.833 60.333,228.973 60.333 C 229.035 60.333,229.193 60.090,229.324 59.792 C 229.611 59.142,231.052 57.682,231.750 57.334 C 232.025 57.196,232.296 57.021,232.352 56.945 C 232.908 56.185,237.926 55.959,240.208 56.591 " stroke="none" fill="#645c54" fill-rule="evenodd"></path><path id="path2" d="M50.584 1.334 C 50.696 1.515,51.667 2.056,51.667 1.937 C 51.667 1.898,51.400 1.709,51.073 1.516 C 50.747 1.324,50.527 1.242,50.584 1.334 M52.276 2.833 C 52.521 3.108,52.752 3.333,52.789 3.333 C 52.826 3.333,52.696 3.108,52.500 2.833 C 52.304 2.558,52.073 2.333,51.987 2.333 C 51.901 2.333,52.031 2.558,52.276 2.833 M89.527 24.090 C 89.248 24.703,89.301 24.834,89.603 24.277 C 89.744 24.017,89.828 23.773,89.790 23.735 C 89.752 23.696,89.634 23.857,89.527 24.090 M137.284 65.567 C 137.449 65.787,137.607 65.945,137.637 65.917 C 137.724 65.833,137.264 65.167,137.119 65.167 C 137.045 65.167,137.119 65.347,137.284 65.567 M123.643 72.843 C 123.271 73.167,123.269 73.176,123.616 73.009 C 123.817 72.911,124.028 72.757,124.084 72.666 C 124.248 72.401,124.068 72.473,123.643 72.843 M54.828 85.032 L 54.453 85.583 54.910 85.114 C 55.161 84.856,55.330 84.608,55.285 84.563 C 55.240 84.518,55.034 84.729,54.828 85.032 M131.597 86.424 C 131.238 86.741,130.976 87.029,131.014 87.064 C 131.052 87.100,131.383 86.838,131.750 86.482 C 132.575 85.682,132.479 85.645,131.597 86.424 M47.583 90.833 L 47.083 90.961 47.532 90.980 C 47.779 90.991,48.027 90.925,48.083 90.833 C 48.140 90.742,48.163 90.676,48.135 90.686 C 48.107 90.697,47.858 90.763,47.583 90.833 M124.312 91.444 C 124.103 91.698,124.119 91.703,124.500 91.505 C 125.059 91.214,125.101 91.167,124.798 91.167 C 124.657 91.167,124.438 91.291,124.312 91.444 M62.968 100.958 C 62.514 101.487,62.451 101.761,62.897 101.266 C 63.137 100.999,63.333 100.756,63.333 100.724 C 63.333 100.599,63.207 100.680,62.968 100.958 " stroke="none" fill="#f05450" fill-rule="evenodd"></path><path id="path3" d="M50.584 1.334 C 50.696 1.515,51.667 2.056,51.667 1.937 C 51.667 1.898,51.400 1.709,51.073 1.516 C 50.747 1.324,50.527 1.242,50.584 1.334 M52.276 2.833 C 52.521 3.108,52.752 3.333,52.789 3.333 C 52.826 3.333,52.696 3.108,52.500 2.833 C 52.304 2.558,52.073 2.333,51.987 2.333 C 51.901 2.333,52.031 2.558,52.276 2.833 M89.527 24.090 C 89.248 24.703,89.301 24.834,89.603 24.277 C 89.744 24.017,89.828 23.773,89.790 23.735 C 89.752 23.696,89.634 23.857,89.527 24.090 M137.284 65.567 C 137.449 65.787,137.607 65.945,137.637 65.917 C 137.724 65.833,137.264 65.167,137.119 65.167 C 137.045 65.167,137.119 65.347,137.284 65.567 M123.643 72.843 C 123.271 73.167,123.269 73.176,123.616 73.009 C 123.817 72.911,124.028 72.757,124.084 72.666 C 124.248 72.401,124.068 72.473,123.643 72.843 M54.828 85.032 L 54.453 85.583 54.910 85.114 C 55.161 84.856,55.330 84.608,55.285 84.563 C 55.240 84.518,55.034 84.729,54.828 85.032 M131.597 86.424 C 131.238 86.741,130.976 87.029,131.014 87.064 C 131.052 87.100,131.383 86.838,131.750 86.482 C 132.575 85.682,132.479 85.645,131.597 86.424 M47.583 90.833 L 47.083 90.961 47.532 90.980 C 47.779 90.991,48.027 90.925,48.083 90.833 C 48.140 90.742,48.163 90.676,48.135 90.686 C 48.107 90.697,47.858 90.763,47.583 90.833 M124.312 91.444 C 124.103 91.698,124.119 91.703,124.500 91.505 C 125.059 91.214,125.101 91.167,124.798 91.167 C 124.657 91.167,124.438 91.291,124.312 91.444 M62.968 100.958 C 62.514 101.487,62.451 101.761,62.897 101.266 C 63.137 100.999,63.333 100.756,63.333 100.724 C 63.333 100.599,63.207 100.680,62.968 100.958 " stroke="none" fill="#f05450" fill-rule="evenodd"></path><path id="path4" d="M50.584 1.334 C 50.696 1.515,51.667 2.056,51.667 1.937 C 51.667 1.898,51.400 1.709,51.073 1.516 C 50.747 1.324,50.527 1.242,50.584 1.334 M52.276 2.833 C 52.521 3.108,52.752 3.333,52.789 3.333 C 52.826 3.333,52.696 3.108,52.500 2.833 C 52.304 2.558,52.073 2.333,51.987 2.333 C 51.901 2.333,52.031 2.558,52.276 2.833 M89.527 24.090 C 89.248 24.703,89.301 24.834,89.603 24.277 C 89.744 24.017,89.828 23.773,89.790 23.735 C 89.752 23.696,89.634 23.857,89.527 24.090 M137.284 65.567 C 137.449 65.787,137.607 65.945,137.637 65.917 C 137.724 65.833,137.264 65.167,137.119 65.167 C 137.045 65.167,137.119 65.347,137.284 65.567 M123.643 72.843 C 123.271 73.167,123.269 73.176,123.616 73.009 C 123.817 72.911,124.028 72.757,124.084 72.666 C 124.248 72.401,124.068 72.473,123.643 72.843 M54.828 85.032 L 54.453 85.583 54.910 85.114 C 55.161 84.856,55.330 84.608,55.285 84.563 C 55.240 84.518,55.034 84.729,54.828 85.032 M131.597 86.424 C 131.238 86.741,130.976 87.029,131.014 87.064 C 131.052 87.100,131.383 86.838,131.750 86.482 C 132.575 85.682,132.479 85.645,131.597 86.424 M47.583 90.833 L 47.083 90.961 47.532 90.980 C 47.779 90.991,48.027 90.925,48.083 90.833 C 48.140 90.742,48.163 90.676,48.135 90.686 C 48.107 90.697,47.858 90.763,47.583 90.833 M124.312 91.444 C 124.103 91.698,124.119 91.703,124.500 91.505 C 125.059 91.214,125.101 91.167,124.798 91.167 C 124.657 91.167,124.438 91.291,124.312 91.444 M62.968 100.958 C 62.514 101.487,62.451 101.761,62.897 101.266 C 63.137 100.999,63.333 100.756,63.333 100.724 C 63.333 100.599,63.207 100.680,62.968 100.958 " stroke="none" fill="#f05450" fill-rule="evenodd"></path></g></svg>