<svg id="svg" version="1.1" width="400" height="340" viewBox="0 0 400 340" xmlns="http://www.w3.org/2000/svg" xmlns:xlink="http://www.w3.org/1999/xlink" ><g id="svgg"><path id="path0" d="M206.833 66.548 C 196.711 68.006,188.552 70.823,179.756 75.897 C 174.512 78.921,167.415 83.007,162.500 85.831 C 143.574 96.705,143.304 96.870,143.515 97.418 C 143.604 97.650,144.387 98.205,145.255 98.652 C 146.123 99.099,147.214 99.723,147.680 100.039 C 148.146 100.354,149.421 101.096,150.513 101.686 C 151.606 102.277,152.737 102.964,153.026 103.213 C 153.316 103.463,153.665 103.667,153.803 103.667 C 153.942 103.667,154.980 104.212,156.111 104.879 C 158.101 106.052,159.079 106.610,161.780 108.112 L 163.060 108.823 165.075 107.707 C 166.184 107.093,174.608 102.240,183.795 96.922 C 209.028 82.318,207.853 82.841,214.920 83.073 C 223.999 83.370,230.416 88.396,227.882 93.225 C 226.635 95.602,226.963 95.399,190.167 116.583 C 187.783 117.955,185.335 119.379,184.726 119.748 L 183.618 120.418 186.892 122.321 C 188.693 123.367,193.052 125.902,196.578 127.953 C 200.104 130.005,203.199 131.764,203.456 131.862 C 203.712 131.961,207.352 130.060,211.544 127.639 C 249.260 105.857,247.136 106.976,251.834 106.418 C 262.322 105.174,271.692 111.296,268.059 117.018 C 266.820 118.970,266.143 119.446,257.333 124.559 C 248.458 129.709,230.178 140.224,226.757 142.146 C 223.801 143.807,223.792 143.623,226.917 145.435 C 228.338 146.258,232.240 148.521,235.590 150.463 C 238.939 152.405,242.294 154.306,243.044 154.689 L 244.409 155.385 248.288 153.134 C 250.421 151.896,253.142 150.332,254.333 149.658 C 255.525 148.985,257.400 147.909,258.500 147.268 C 261.364 145.599,274.547 137.991,286.000 131.397 C 299.670 123.526,301.171 121.969,301.162 115.667 C 301.153 108.901,294.743 102.229,281.667 95.375 C 274.912 91.835,263.728 88.000,260.159 88.000 C 260.103 88.000,259.576 87.212,258.987 86.250 C 254.320 78.618,239.966 70.180,226.673 67.255 C 223.607 66.580,209.979 66.094,206.833 66.548 " stroke="none" fill="#b27960" fill-rule="evenodd"></path><path id="path1" d="M0.000 170.000 L 0.000 340.000 200.000 340.000 L 400.000 340.000 400.000 170.000 L 400.000 0.000 200.000 0.000 L 0.000 0.000 0.000 170.000 M65.517 52.093 C 67.158 53.061,71.612 55.637,75.417 57.816 C 82.643 61.957,82.784 62.069,81.604 62.700 C 78.312 64.462,74.146 70.304,72.938 74.851 C 72.151 77.815,72.312 140.220,73.114 142.833 C 76.180 152.826,86.416 160.126,90.522 155.247 C 92.219 153.230,92.157 154.443,92.336 120.000 C 92.504 87.563,92.506 87.496,93.242 85.328 C 95.117 79.802,101.116 73.007,103.260 73.981 C 104.276 74.441,122.016 84.639,122.434 85.002 C 122.581 85.130,121.226 86.719,119.423 88.534 C 115.888 92.093,114.522 94.336,113.526 98.215 C 112.735 101.294,112.732 162.126,113.522 165.563 C 115.930 176.034,128.175 184.426,131.545 177.914 C 132.986 175.129,132.992 174.981,132.996 142.487 C 133.000 108.039,132.900 109.695,135.259 105.197 C 138.209 99.571,138.090 99.653,170.167 81.221 C 172.183 80.062,175.858 77.942,178.333 76.510 C 195.751 66.430,212.527 63.576,229.571 67.794 C 240.943 70.608,253.982 78.546,258.491 85.401 C 259.712 87.257,260.366 87.956,260.902 87.974 C 264.520 88.100,275.083 91.775,281.601 95.175 C 297.706 103.577,304.488 112.649,300.500 120.458 C 298.837 123.715,296.435 125.572,286.451 131.320 C 274.784 138.037,270.560 140.474,266.500 142.829 C 259.077 147.135,247.359 153.861,245.167 155.073 C 240.649 157.572,236.659 162.472,234.915 167.664 C 234.190 169.822,234.185 170.011,233.990 203.667 C 233.773 240.939,233.922 238.285,231.738 243.927 C 227.373 255.201,216.867 256.748,202.732 248.197 C 188.688 239.702,178.739 225.375,175.003 208.264 C 173.952 203.451,173.087 196.188,173.588 196.377 C 173.768 196.445,178.352 199.050,183.775 202.167 L 193.636 207.833 193.861 209.667 C 195.446 222.577,209.665 232.637,213.227 223.369 C 213.772 221.950,213.830 219.368,213.995 189.333 L 214.174 156.833 214.916 154.877 C 216.342 151.118,219.099 147.395,222.156 145.101 C 223.078 144.409,223.908 143.750,224.000 143.638 C 224.092 143.525,226.267 142.238,228.833 140.777 C 261.938 121.932,267.045 118.796,268.195 116.600 C 270.829 111.572,262.655 105.882,253.582 106.428 C 248.598 106.728,246.624 107.554,235.491 113.996 C 229.996 117.176,223.625 120.859,221.333 122.181 C 219.042 123.504,214.826 125.944,211.966 127.604 C 203.030 132.791,204.116 132.421,201.737 131.083 C 191.949 125.577,183.385 120.482,183.585 120.284 C 183.810 120.060,198.410 111.610,216.000 101.522 C 225.166 96.265,225.996 95.684,227.481 93.496 C 231.358 87.784,220.093 81.347,209.905 83.453 C 206.624 84.132,203.923 85.393,196.833 89.555 C 193.717 91.385,187.942 94.734,184.000 96.996 C 180.058 99.259,174.208 102.634,171.000 104.496 C 167.792 106.357,164.469 108.281,163.615 108.769 C 159.803 110.952,156.036 115.550,154.410 120.008 L 153.500 122.500 153.303 156.000 C 153.167 178.975,152.987 189.995,152.731 191.076 C 149.175 206.042,141.015 210.474,127.671 204.686 C 118.479 200.700,108.174 191.894,103.367 183.919 C 102.780 182.945,102.492 182.734,102.057 182.958 C 98.732 184.673,92.074 183.697,85.500 180.533 C 69.033 172.605,57.451 156.867,53.098 136.500 L 52.172 132.167 52.075 98.500 L 51.978 64.833 52.817 62.167 C 54.175 57.852,57.443 53.252,60.639 51.156 C 62.235 50.109,62.116 50.087,65.517 52.093 M178.405 152.561 C 180.841 153.969,185.233 156.495,188.167 158.174 L 193.500 161.227 193.588 172.947 C 193.636 179.393,193.581 184.667,193.466 184.667 C 193.351 184.667,191.662 183.719,189.712 182.561 C 187.762 181.404,183.281 178.816,179.755 176.811 L 173.343 173.167 173.338 161.583 C 173.335 154.349,173.454 150.000,173.655 150.000 C 173.833 150.000,175.970 151.152,178.405 152.561 M278.500 176.137 C 282.040 177.310,283.904 178.255,292.500 183.238 C 299.302 187.180,319.391 198.732,321.500 199.914 C 325.370 202.082,324.963 200.506,325.072 213.750 C 325.124 220.121,325.061 225.334,324.931 225.334 C 324.802 225.333,323.902 224.864,322.931 224.291 C 321.454 223.419,303.789 213.206,300.518 211.332 C 299.958 211.012,295.825 208.640,291.333 206.061 C 279.731 199.400,276.752 199.098,275.172 204.419 C 273.018 211.673,278.015 221.837,285.834 226.107 C 287.117 226.808,289.517 228.169,291.167 229.132 C 292.817 230.096,296.717 232.355,299.833 234.153 C 313.577 242.082,320.017 251.337,323.871 268.698 C 325.080 274.141,325.305 290.170,324.227 293.972 C 320.112 308.472,308.892 309.726,288.667 297.946 C 285.642 296.184,282.642 294.444,282.000 294.078 C 280.119 293.007,268.460 286.279,264.833 284.173 C 263.000 283.108,260.075 281.420,258.333 280.422 C 256.592 279.424,254.977 278.426,254.746 278.204 C 254.419 277.891,254.344 275.218,254.412 266.274 L 254.500 254.747 259.833 257.819 C 262.767 259.508,267.192 262.062,269.667 263.494 C 272.142 264.925,277.092 267.783,280.667 269.844 C 284.242 271.906,289.011 274.660,291.265 275.964 C 300.369 281.234,303.938 280.655,304.852 273.760 C 305.858 266.180,301.290 258.631,292.620 253.545 C 283.457 248.169,282.431 247.513,279.500 245.169 C 262.695 231.724,253.591 213.149,254.439 194.041 C 255.163 177.760,263.860 171.288,278.500 176.137 " stroke="none" fill="#fbfbfb" fill-rule="evenodd"></path><path id="path2" d="M118.821 88.750 L 117.167 90.500 118.917 88.846 C 119.879 87.936,120.667 87.149,120.667 87.096 C 120.667 86.847,120.358 87.124,118.821 88.750 M92.493 119.500 C 92.493 136.550,92.534 143.476,92.583 134.891 C 92.633 126.307,92.633 112.357,92.583 103.891 C 92.534 95.426,92.493 102.450,92.493 119.500 M112.826 131.833 C 112.826 148.517,112.867 155.293,112.917 146.891 C 112.966 138.490,112.966 124.840,112.917 116.558 C 112.867 108.276,112.826 115.150,112.826 131.833 M223.294 144.230 C 223.272 144.379,223.266 144.595,223.281 144.711 C 223.295 144.827,223.051 144.902,222.737 144.877 C 222.423 144.853,222.208 145.032,222.258 145.275 C 222.309 145.518,222.208 145.629,222.035 145.522 C 221.560 145.228,219.228 147.560,219.522 148.035 C 219.672 148.279,219.629 148.349,219.412 148.215 C 218.950 147.930,216.938 150.357,217.158 150.932 C 217.261 151.199,217.176 151.276,216.940 151.129 C 216.679 150.968,216.625 151.077,216.773 151.463 C 216.898 151.788,216.857 151.951,216.677 151.840 C 216.257 151.580,215.234 153.594,215.472 154.214 C 215.575 154.482,215.530 154.621,215.372 154.524 C 214.147 153.767,214.000 157.378,213.993 188.522 C 213.989 208.795,213.866 219.551,213.624 221.000 C 213.424 222.192,213.273 223.617,213.288 224.167 C 213.303 224.717,213.207 225.002,213.074 224.801 C 212.921 224.568,212.530 224.807,212.000 225.455 C 211.542 226.016,211.392 226.344,211.667 226.184 C 211.942 226.024,212.050 226.022,211.907 226.178 C 210.487 227.739,205.539 226.840,202.410 224.454 C 201.796 223.985,201.039 223.565,200.730 223.519 C 200.420 223.474,200.219 223.324,200.283 223.187 C 200.445 222.837,198.621 220.989,198.305 221.184 C 198.163 221.272,197.938 221.169,197.805 220.954 C 197.654 220.710,197.708 220.653,197.948 220.802 C 198.745 221.294,198.289 220.390,197.148 219.216 C 196.474 218.521,196.065 217.831,196.200 217.613 C 196.357 217.359,196.288 217.322,195.995 217.503 C 195.676 217.700,195.611 217.625,195.763 217.231 C 195.878 216.931,195.778 216.493,195.542 216.257 C 195.306 216.021,195.182 215.620,195.266 215.367 C 195.369 215.059,195.277 214.995,194.987 215.175 C 194.681 215.364,194.612 215.289,194.754 214.920 C 194.864 214.633,194.760 213.746,194.522 212.949 C 194.285 212.152,193.988 210.672,193.864 209.661 L 193.638 207.822 191.275 206.494 C 189.975 205.764,188.692 205.214,188.423 205.272 C 188.153 205.330,188.015 205.245,188.115 205.083 C 188.215 204.921,187.818 204.516,187.232 204.181 C 186.646 203.847,185.653 203.266,185.024 202.890 C 184.396 202.514,184.002 202.400,184.148 202.636 C 184.360 202.980,184.269 202.989,183.694 202.681 C 183.299 202.470,182.643 202.390,182.237 202.503 C 181.731 202.646,181.639 202.614,181.945 202.402 C 182.301 202.154,182.275 202.049,181.814 201.872 C 181.497 201.750,181.320 201.568,181.421 201.468 C 181.522 201.367,182.106 201.537,182.719 201.847 C 184.460 202.726,183.386 201.890,181.196 200.661 C 180.112 200.054,179.334 199.732,179.467 199.947 C 179.724 200.363,178.163 199.821,177.517 199.270 C 176.908 198.751,176.203 198.941,176.667 199.500 C 176.953 199.845,176.966 200.000,176.707 200.000 C 176.502 200.000,176.321 199.887,176.306 199.750 C 176.290 199.612,176.242 199.188,176.199 198.807 C 176.121 198.126,176.144 198.128,177.560 198.919 C 178.352 199.361,179.000 199.650,179.000 199.560 C 179.000 199.232,175.149 197.218,174.590 197.254 C 174.273 197.274,173.912 197.127,173.788 196.927 C 173.644 196.694,173.720 196.661,174.000 196.833 C 174.289 197.012,174.356 196.973,174.198 196.718 C 172.536 194.028,173.949 205.281,176.243 213.000 C 176.706 214.558,177.229 215.925,177.404 216.037 C 177.580 216.149,177.711 216.337,177.695 216.454 C 177.583 217.293,177.728 218.017,178.083 218.393 C 178.313 218.635,178.548 219.115,178.608 219.459 C 178.808 220.621,179.315 221.667,179.678 221.667 C 179.877 221.667,179.947 221.817,179.833 222.000 C 179.720 222.183,179.781 222.333,179.970 222.333 C 180.158 222.333,180.230 222.547,180.130 222.808 C 180.026 223.079,180.244 223.441,180.641 223.653 C 181.022 223.857,181.331 224.206,181.328 224.428 C 181.325 224.683,181.203 224.647,181.000 224.333 C 180.822 224.058,180.676 223.983,180.675 224.167 C 180.671 224.749,182.666 228.000,183.026 228.000 C 183.217 228.000,183.291 228.131,183.192 228.292 C 182.949 228.685,184.864 231.500,185.374 231.500 C 185.596 231.500,185.847 231.708,185.932 231.963 C 186.035 232.272,185.944 232.338,185.658 232.162 C 185.367 231.981,185.312 232.029,185.486 232.311 C 186.088 233.285,186.516 232.007,185.930 230.986 C 185.619 230.443,185.489 230.000,185.642 230.000 C 185.991 230.000,186.583 231.588,186.608 232.591 C 186.619 233.068,186.488 233.262,186.253 233.117 C 186.047 232.990,186.298 233.435,186.810 234.106 C 187.322 234.778,187.878 235.242,188.045 235.139 C 188.213 235.035,188.309 235.094,188.258 235.268 C 188.115 235.767,189.663 237.709,190.025 237.484 C 190.204 237.374,190.309 237.482,190.258 237.725 C 190.208 237.968,190.354 238.129,190.583 238.083 C 190.813 238.037,190.963 238.181,190.917 238.402 C 190.871 238.622,191.021 238.810,191.250 238.818 C 191.479 238.827,191.679 238.983,191.695 239.167 C 191.742 239.721,192.389 240.338,192.713 240.138 C 192.880 240.035,192.975 240.149,192.925 240.392 C 192.875 240.635,193.021 240.796,193.250 240.750 C 193.479 240.704,193.629 240.854,193.583 241.083 C 193.538 241.312,193.699 241.459,193.941 241.408 C 194.184 241.358,194.295 241.459,194.188 241.633 C 193.939 242.034,195.817 243.396,196.174 243.073 C 196.321 242.941,196.341 243.007,196.220 243.218 C 195.852 243.861,202.651 248.588,203.336 248.165 C 203.527 248.047,203.642 248.149,203.592 248.392 C 203.541 248.636,203.759 248.813,204.080 248.788 C 204.399 248.763,204.589 248.856,204.503 248.995 C 204.265 249.381,208.298 251.418,208.868 251.199 C 209.143 251.094,209.283 251.145,209.179 251.313 C 208.925 251.725,210.085 252.066,210.870 251.809 C 211.330 251.659,211.380 251.690,211.053 251.924 C 210.270 252.484,215.435 253.611,218.748 253.603 C 220.696 253.599,221.591 253.480,221.446 253.247 C 221.319 253.040,221.391 252.996,221.622 253.139 C 222.376 253.605,224.248 252.711,224.206 251.905 C 224.175 251.319,224.352 251.164,225.068 251.151 C 225.832 251.138,225.908 251.214,225.568 251.651 C 225.347 251.935,225.692 251.765,226.333 251.274 C 226.975 250.782,227.462 250.220,227.417 250.024 C 227.371 249.827,227.521 249.704,227.750 249.750 C 227.979 249.796,228.125 249.635,228.075 249.392 C 228.025 249.149,228.126 249.038,228.300 249.146 C 228.473 249.253,228.957 248.862,229.373 248.277 C 229.790 247.692,229.989 247.301,229.816 247.408 C 229.642 247.515,229.500 247.167,229.500 246.635 C 229.500 246.102,229.650 245.676,229.833 245.688 C 230.017 245.699,230.131 245.999,230.087 246.354 C 230.044 246.709,230.089 247.000,230.189 247.000 C 230.535 247.000,232.044 243.340,231.836 243.004 C 231.721 242.819,231.802 242.667,232.016 242.667 C 232.230 242.667,232.316 242.435,232.206 242.149 C 232.092 241.853,232.148 241.719,232.337 241.836 C 232.518 241.948,232.667 241.805,232.667 241.520 C 232.667 241.234,232.517 241.000,232.333 241.000 C 232.150 241.000,232.000 240.757,232.000 240.459 C 232.000 240.047,232.105 240.006,232.444 240.287 C 232.798 240.581,232.967 240.314,233.277 238.969 C 233.759 236.882,233.772 235.847,233.303 236.833 C 233.027 237.414,233.008 237.393,233.155 236.667 C 233.248 236.208,233.341 235.533,233.362 235.167 C 233.395 234.584,233.427 234.597,233.617 235.271 C 233.736 235.695,233.792 221.696,233.741 204.163 C 233.679 182.438,233.758 172.351,233.991 172.495 C 234.291 172.680,234.461 171.226,234.450 168.583 C 234.448 168.262,234.555 168.000,234.687 168.000 C 234.820 168.000,235.018 167.639,235.129 167.198 C 235.240 166.756,235.432 166.132,235.555 165.810 C 235.723 165.373,235.660 165.288,235.307 165.474 C 235.046 165.612,235.155 165.449,235.549 165.112 C 235.942 164.776,236.565 163.900,236.931 163.167 C 237.298 162.433,238.215 161.134,238.969 160.279 C 239.723 159.424,240.225 158.661,240.086 158.583 C 239.947 158.506,239.987 158.475,240.176 158.516 C 240.364 158.556,241.264 157.909,242.176 157.079 C 243.087 156.249,243.658 155.668,243.444 155.788 C 243.229 155.908,242.854 155.817,242.610 155.586 C 241.074 154.130,239.367 153.347,238.852 153.863 C 238.519 154.195,238.078 154.297,237.612 154.149 L 236.889 153.920 237.692 153.314 C 238.469 152.728,238.473 152.700,237.831 152.462 C 237.466 152.327,236.695 151.862,236.119 151.429 C 235.206 150.743,235.010 150.704,234.590 151.124 C 234.170 151.545,233.918 151.408,232.623 150.053 C 230.859 148.207,228.749 146.994,228.370 147.607 C 228.046 148.131,225.675 149.338,225.013 149.316 C 224.639 149.303,224.699 149.160,225.232 148.787 C 225.635 148.506,226.296 147.988,226.700 147.638 C 227.104 147.287,227.595 147.000,227.789 147.000 C 227.984 147.000,227.904 146.761,227.612 146.469 C 227.125 145.983,226.962 146.015,225.693 146.855 C 224.730 147.493,224.200 147.667,223.958 147.425 C 223.540 147.007,224.816 146.000,225.765 146.000 C 226.318 146.000,226.329 145.948,225.871 145.490 C 225.525 145.144,225.071 145.053,224.459 145.207 C 223.716 145.393,223.594 145.338,223.764 144.894 C 223.878 144.597,223.827 144.266,223.652 144.158 C 223.477 144.049,223.316 144.082,223.294 144.230 M173.333 161.631 C 173.333 173.867,173.352 174.022,174.780 173.474 C 175.026 173.380,175.438 173.572,175.697 173.901 C 176.127 174.449,176.116 174.460,175.575 174.036 C 175.250 173.781,174.899 173.657,174.794 173.761 C 174.490 174.066,176.648 175.051,177.061 174.795 C 177.286 174.657,177.344 174.713,177.206 174.936 C 177.068 175.159,177.527 175.589,178.356 176.012 C 179.115 176.399,179.642 176.563,179.527 176.377 C 179.401 176.174,179.687 176.067,180.242 176.110 C 180.751 176.149,181.180 176.328,181.195 176.507 C 181.286 177.534,183.667 179.722,183.667 178.778 C 183.667 178.647,183.869 178.816,184.116 179.154 C 184.408 179.553,184.730 179.673,185.033 179.497 C 185.290 179.348,185.386 179.352,185.246 179.506 C 184.871 179.919,187.913 181.584,188.855 181.481 C 189.300 181.432,189.763 181.553,189.884 181.749 C 190.028 181.982,189.828 182.035,189.302 181.902 C 188.521 181.705,188.517 181.713,189.167 182.209 C 190.413 183.160,191.904 183.855,191.403 183.251 C 191.051 182.826,191.051 182.695,191.403 182.530 C 191.640 182.420,191.383 182.407,190.833 182.503 C 190.001 182.647,189.935 182.614,190.437 182.310 C 191.054 181.936,192.040 182.107,191.964 182.574 C 191.829 183.395,192.080 184.019,192.672 184.336 C 193.339 184.693,193.343 184.628,193.277 173.748 C 193.241 167.726,193.323 162.620,193.459 162.400 C 193.597 162.176,193.535 162.000,193.317 162.000 C 193.104 162.000,193.012 161.783,193.114 161.517 C 193.238 161.194,193.139 161.095,192.816 161.219 C 192.247 161.438,192.168 162.000,192.707 162.000 C 192.971 162.000,192.978 162.124,192.732 162.421 C 192.540 162.652,192.317 163.440,192.236 164.171 C 192.137 165.062,192.095 164.841,192.109 163.500 C 192.120 162.400,192.258 161.325,192.415 161.112 C 192.771 160.629,186.190 156.843,185.614 157.199 C 185.389 157.338,185.321 157.290,185.449 157.083 C 185.724 156.638,182.107 154.561,181.601 154.874 C 181.389 155.005,181.323 154.953,181.447 154.752 C 181.647 154.430,174.371 150.000,173.641 150.000 C 173.459 150.000,173.333 154.734,173.333 161.631 M236.331 152.750 C 236.329 152.979,235.954 153.340,235.497 153.552 C 234.677 153.933,234.235 153.209,234.889 152.556 C 235.273 152.171,236.333 152.314,236.331 152.750 M233.067 154.400 C 232.756 154.711,232.578 154.711,232.267 154.400 C 231.956 154.089,232.044 154.000,232.667 154.000 C 233.289 154.000,233.378 154.089,233.067 154.400 M241.476 155.857 C 242.152 156.533,242.164 156.512,241.022 156.599 C 240.013 156.676,239.472 156.252,239.833 155.667 C 240.137 155.175,240.880 155.261,241.476 155.857 M188.241 158.592 C 188.892 159.008,188.923 159.125,188.494 159.554 C 188.225 159.823,187.826 159.932,187.608 159.797 C 187.334 159.628,187.410 159.478,187.855 159.313 C 188.438 159.096,188.412 159.039,187.583 158.712 C 187.079 158.513,186.667 158.187,186.667 157.989 C 186.667 157.629,186.833 157.692,188.241 158.592 M237.989 161.020 C 237.539 161.862,237.426 161.836,237.528 160.917 C 237.640 159.907,237.623 159.934,238.001 160.167 C 238.223 160.305,238.219 160.590,237.989 161.020 M70.167 169.667 C 71.255 170.767,72.221 171.667,72.312 171.667 C 72.404 171.667,71.589 170.767,70.500 169.667 C 69.411 168.567,68.446 167.667,68.354 167.667 C 68.263 167.667,69.078 168.567,70.167 169.667 M175.563 172.250 C 175.479 172.571,175.411 172.308,175.411 171.667 C 175.411 171.025,175.479 170.762,175.563 171.083 C 175.647 171.404,175.647 171.929,175.563 172.250 M118.833 175.667 C 119.549 176.400,120.210 177.000,120.302 177.000 C 120.394 177.000,119.883 176.400,119.167 175.667 C 118.451 174.933,117.790 174.333,117.698 174.333 C 117.606 174.333,118.117 174.933,118.833 175.667 M266.627 175.038 C 266.605 175.292,266.595 175.582,266.605 175.683 C 266.614 175.783,265.919 175.854,265.061 175.840 C 262.807 175.805,259.682 177.503,260.230 178.465 C 260.346 178.668,260.315 178.719,260.162 178.580 C 259.733 178.191,258.351 179.657,258.581 180.257 C 258.708 180.590,258.645 180.693,258.404 180.544 C 257.994 180.290,256.885 182.107,257.236 182.458 C 257.350 182.573,257.261 182.667,257.036 182.667 C 256.811 182.667,256.720 182.817,256.833 183.000 C 256.947 183.183,256.872 183.333,256.667 183.333 C 256.462 183.333,256.387 183.483,256.500 183.667 C 256.613 183.850,256.571 184.000,256.406 184.000 C 256.086 184.000,255.311 186.266,255.367 187.039 C 255.385 187.292,255.511 187.125,255.647 186.667 C 255.794 186.174,255.882 187.082,255.864 188.891 C 255.838 191.474,255.771 191.836,255.428 191.224 C 254.958 190.382,254.882 189.437,255.272 189.278 C 255.421 189.217,255.444 188.792,255.322 188.333 C 255.133 187.621,255.064 187.726,254.851 189.050 C 254.713 189.903,254.707 190.934,254.836 191.342 C 254.996 191.846,254.953 192.010,254.702 191.855 C 254.439 191.692,254.340 192.989,254.357 196.397 C 254.372 199.533,254.484 200.938,254.682 200.500 C 254.898 200.023,254.929 200.187,254.790 201.075 C 254.511 202.857,255.384 208.618,255.687 207.000 C 255.842 206.174,255.898 206.508,255.879 208.142 C 255.861 209.626,255.990 210.497,256.240 210.580 C 256.454 210.651,256.537 210.950,256.425 211.243 C 256.286 211.605,256.349 211.696,256.623 211.527 C 256.915 211.347,256.969 211.506,256.820 212.102 C 256.648 212.787,256.773 212.990,257.556 213.300 C 258.271 213.583,258.312 213.639,257.724 213.528 C 257.134 213.417,256.994 213.504,257.142 213.889 C 257.249 214.167,257.427 214.756,257.538 215.198 C 257.648 215.639,257.882 216.000,258.056 216.000 C 258.230 216.000,258.280 215.850,258.167 215.667 C 258.053 215.483,258.113 215.333,258.300 215.333 C 258.486 215.333,258.598 215.853,258.548 216.488 C 258.498 217.123,258.642 218.060,258.868 218.571 C 259.094 219.082,259.291 219.313,259.306 219.083 C 259.321 218.854,259.489 218.667,259.678 218.667 C 259.906 218.667,259.894 218.908,259.645 219.374 C 259.415 219.804,259.401 219.998,259.610 219.868 C 259.799 219.751,260.048 219.808,260.163 219.995 C 260.278 220.181,260.222 220.333,260.037 220.333 C 259.622 220.333,260.233 222.232,260.751 222.552 C 260.978 222.693,261.002 222.606,260.817 222.307 C 260.466 221.739,260.337 218.863,260.680 219.234 C 261.164 219.759,261.433 221.101,261.000 220.833 C 260.703 220.650,260.663 220.793,260.850 221.375 C 260.990 221.810,261.144 222.516,261.192 222.944 C 261.241 223.372,261.555 223.945,261.890 224.219 C 262.226 224.492,262.300 224.613,262.056 224.488 C 261.726 224.319,261.750 224.528,262.148 225.297 C 262.798 226.554,262.859 226.562,263.435 225.462 C 263.872 224.628,263.890 224.664,263.858 226.333 C 263.833 227.617,264.016 228.359,264.553 229.149 C 265.271 230.207,266.538 230.681,266.185 229.760 C 266.087 229.506,266.149 229.386,266.321 229.492 C 266.493 229.599,266.568 230.199,266.488 230.826 C 266.349 231.910,266.680 232.460,267.500 232.510 C 267.683 232.521,267.789 232.732,267.735 232.977 C 267.596 233.608,268.934 234.942,269.606 234.844 C 269.915 234.799,269.979 234.827,269.750 234.906 C 269.111 235.125,269.239 235.444,270.429 236.598 C 271.655 237.786,272.261 236.876,271.100 235.593 C 270.606 235.047,270.607 235.000,271.115 235.000 C 271.678 235.000,271.763 235.285,271.808 237.333 C 271.827 238.228,271.968 238.489,272.413 238.454 C 272.732 238.429,272.923 238.522,272.837 238.661 C 272.751 238.800,272.957 239.233,273.296 239.624 C 273.964 240.394,274.523 240.591,274.129 239.917 C 273.995 239.688,274.211 239.786,274.609 240.135 C 275.012 240.489,275.333 240.599,275.333 240.385 C 275.333 240.173,275.671 240.006,276.083 240.013 C 276.776 240.026,276.760 240.067,275.874 240.547 C 275.075 240.979,274.861 240.991,274.598 240.617 C 274.425 240.369,274.331 240.327,274.391 240.522 C 274.606 241.225,278.371 244.349,278.733 244.126 C 278.943 243.996,279.010 244.048,278.889 244.244 C 278.771 244.435,278.897 244.776,279.170 245.003 C 279.443 245.230,279.667 245.341,279.667 245.251 C 279.667 245.162,280.178 245.570,280.803 246.160 C 281.901 247.195,284.539 248.935,284.214 248.411 C 284.127 248.269,284.968 248.146,286.084 248.136 C 287.317 248.125,287.861 248.217,287.473 248.369 C 286.911 248.589,286.904 248.623,287.417 248.643 C 287.737 248.656,288.000 248.817,288.000 249.000 C 288.000 249.433,287.957 249.427,286.725 248.813 C 286.033 248.467,285.499 248.394,285.140 248.595 C 284.606 248.894,291.870 253.426,292.902 253.439 C 293.124 253.442,293.381 253.644,293.475 253.889 C 293.569 254.133,293.809 254.333,294.009 254.333 C 294.209 254.333,294.266 254.160,294.135 253.948 C 293.983 253.703,294.044 253.654,294.304 253.815 C 294.528 253.954,294.627 254.151,294.524 254.254 C 294.421 254.357,295.048 254.921,295.918 255.508 C 297.497 256.572,299.518 258.587,300.947 260.523 C 301.552 261.342,301.925 261.534,302.821 261.490 C 303.876 261.437,303.920 261.478,303.588 262.207 C 303.221 263.012,302.667 262.977,302.667 262.147 C 302.667 261.883,302.517 261.667,302.333 261.667 C 301.869 261.667,301.913 261.917,302.572 263.032 C 303.123 263.964,303.157 263.975,303.505 263.324 C 303.825 262.727,303.867 262.785,303.867 263.819 C 303.867 264.513,303.760 264.823,303.605 264.578 C 303.173 263.898,303.300 264.607,303.842 265.905 C 304.824 268.255,305.170 272.908,304.531 275.167 C 304.220 276.267,303.926 277.432,303.878 277.755 C 303.829 278.079,303.582 278.529,303.328 278.755 C 302.977 279.067,302.983 279.011,303.349 278.525 C 303.823 277.897,303.814 277.896,302.920 278.478 C 302.035 279.054,301.957 279.672,302.770 279.662 C 303.025 279.658,303.000 279.551,302.699 279.360 C 302.364 279.148,302.483 279.079,303.115 279.115 C 304.118 279.174,304.292 279.550,303.417 279.766 C 302.373 280.023,298.499 280.056,298.750 279.805 C 299.081 279.474,295.396 278.255,294.932 278.542 C 294.721 278.672,294.657 278.618,294.782 278.416 C 294.908 278.212,294.118 277.573,292.917 276.909 C 291.771 276.276,290.242 275.405,289.520 274.975 C 288.671 274.469,288.299 274.365,288.466 274.680 C 288.608 274.948,288.432 274.808,288.075 274.369 C 287.659 273.858,287.270 273.667,286.994 273.837 C 286.691 274.024,286.645 273.972,286.837 273.662 C 287.036 273.338,286.956 273.279,286.537 273.440 C 286.223 273.560,286.045 273.529,286.143 273.371 C 286.334 273.063,281.116 269.892,280.417 269.890 C 280.188 269.889,280.000 269.796,280.000 269.683 C 280.000 269.435,278.180 268.331,277.782 268.338 C 277.627 268.341,277.704 268.472,277.952 268.630 C 278.268 268.830,278.293 268.986,278.036 269.145 C 277.707 269.348,277.520 268.942,277.625 268.256 C 277.646 268.121,277.064 267.706,276.331 267.332 C 275.599 266.959,275.000 266.720,275.000 266.801 C 275.000 266.883,274.662 266.654,274.250 266.292 C 273.349 265.501,269.199 263.180,269.469 263.617 C 269.798 264.149,268.530 263.861,267.854 263.250 C 267.498 262.929,267.061 262.667,266.882 262.667 C 266.702 262.667,266.642 262.581,266.747 262.475 C 266.852 262.370,267.402 262.524,267.969 262.817 C 271.109 264.441,267.047 261.886,262.532 259.397 C 262.362 259.303,262.349 259.423,262.503 259.672 C 262.704 259.997,262.622 260.054,262.194 259.890 C 261.874 259.767,261.549 259.667,261.473 259.667 C 261.396 259.667,261.333 259.508,261.333 259.314 C 261.333 259.120,261.521 259.056,261.750 259.172 C 261.979 259.288,261.871 259.143,261.510 258.851 C 261.148 258.558,260.653 258.395,260.409 258.489 C 260.165 258.582,260.048 258.525,260.149 258.361 C 260.418 257.927,256.661 255.889,255.583 255.883 C 255.079 255.881,254.667 255.740,254.667 255.570 C 254.667 255.401,254.929 255.353,255.250 255.465 C 255.717 255.628,255.701 255.566,255.167 255.153 C 254.217 254.419,253.928 277.430,254.876 278.317 C 255.179 278.601,255.322 278.646,255.194 278.417 C 254.847 277.797,255.514 277.913,256.043 278.564 C 256.353 278.947,256.366 279.048,256.083 278.878 C 255.854 278.740,255.667 278.708,255.667 278.807 C 255.667 279.123,258.243 280.313,258.459 280.097 C 258.573 279.982,258.667 280.050,258.667 280.246 C 258.667 280.443,259.379 281.012,260.250 281.512 C 261.121 282.012,262.309 282.706,262.890 283.055 C 263.669 283.521,264.012 283.584,264.192 283.293 C 264.327 283.074,264.295 282.985,264.119 283.093 C 263.944 283.201,263.622 283.178,263.403 283.043 C 263.183 282.907,263.674 282.802,264.493 282.810 C 265.919 282.823,265.947 282.842,265.158 283.256 C 264.109 283.806,264.120 283.872,265.370 284.519 C 265.944 284.816,266.301 284.884,266.169 284.671 C 266.039 284.460,265.645 284.181,265.295 284.051 C 264.748 283.849,264.811 283.760,265.746 283.418 C 266.654 283.086,266.739 283.092,266.260 283.456 C 265.573 283.979,267.389 286.178,268.238 285.852 C 268.493 285.754,268.620 285.806,268.520 285.968 C 268.271 286.371,274.273 289.743,274.733 289.459 C 274.974 289.310,275.008 289.385,274.830 289.672 C 274.630 289.995,274.711 290.055,275.129 289.894 C 275.452 289.770,275.617 289.810,275.508 289.987 C 275.251 290.403,276.576 291.095,277.058 290.797 C 277.268 290.668,277.345 290.711,277.232 290.895 C 276.958 291.338,279.465 292.723,280.099 292.480 C 280.374 292.374,280.697 292.446,280.817 292.640 C 280.953 292.860,280.808 292.919,280.434 292.798 C 280.014 292.663,280.084 292.815,280.667 293.305 C 281.125 293.690,281.763 293.943,282.084 293.867 C 282.405 293.791,282.592 293.851,282.500 293.999 C 282.227 294.441,285.406 296.121,286.551 296.140 C 287.133 296.150,287.538 296.273,287.451 296.412 C 287.365 296.552,287.478 296.667,287.703 296.667 C 287.927 296.667,288.024 296.754,287.917 296.860 C 287.811 296.967,287.411 296.887,287.029 296.682 C 286.646 296.477,286.333 296.376,286.333 296.456 C 286.333 296.828,290.249 298.778,290.900 298.731 C 291.304 298.701,291.741 298.850,291.871 299.062 C 292.030 299.318,291.924 299.376,291.555 299.234 C 290.764 298.931,290.868 299.239,291.707 299.688 C 292.096 299.896,292.322 299.919,292.211 299.738 C 292.099 299.557,292.274 299.340,292.599 299.254 C 293.002 299.149,293.190 299.289,293.190 299.692 C 293.190 300.018,293.073 300.212,292.929 300.123 C 292.785 300.033,292.667 300.033,292.667 300.123 C 292.667 300.700,296.370 302.342,296.910 302.005 C 297.448 301.667,297.442 301.650,296.833 301.810 C 296.467 301.906,295.944 301.845,295.671 301.674 C 295.335 301.463,295.641 301.406,296.625 301.496 C 298.184 301.639,298.426 301.765,298.532 302.487 C 298.575 302.780,298.396 302.891,298.050 302.785 C 297.615 302.652,297.626 302.697,298.104 303.003 C 298.436 303.215,298.931 303.303,299.204 303.198 C 299.478 303.093,299.616 303.145,299.512 303.313 C 299.268 303.709,300.542 304.116,301.049 303.803 C 301.290 303.654,301.347 303.709,301.198 303.948 C 301.068 304.160,301.107 304.333,301.286 304.333 C 301.466 304.333,301.887 304.422,302.223 304.531 C 302.737 304.698,302.754 304.670,302.333 304.355 C 301.942 304.061,302.050 304.028,302.833 304.203 C 304.076 304.481,304.306 304.658,303.472 304.695 C 302.379 304.744,304.648 305.322,307.333 305.678 C 310.110 306.046,314.016 305.776,313.278 305.267 C 312.983 305.063,313.169 305.022,313.833 305.146 C 314.383 305.248,315.058 305.185,315.333 305.005 C 315.608 304.824,315.683 304.672,315.500 304.667 C 315.074 304.654,316.054 304.010,316.500 304.010 C 316.683 304.010,316.608 304.156,316.333 304.333 C 315.330 304.982,316.454 304.646,317.546 303.972 C 318.165 303.589,318.572 303.116,318.451 302.920 C 318.328 302.722,318.386 302.660,318.580 302.780 C 318.773 302.899,319.284 302.686,319.715 302.306 C 320.147 301.926,320.289 301.725,320.032 301.859 C 319.689 302.038,319.642 301.978,319.857 301.635 C 320.018 301.377,320.113 300.867,320.068 300.500 C 319.992 299.889,320.021 299.895,320.417 300.575 C 320.914 301.430,322.750 298.949,322.750 297.424 C 322.750 297.014,322.869 296.752,323.015 296.842 C 323.412 297.088,324.053 294.860,323.786 294.163 C 323.613 293.713,323.667 293.627,323.995 293.830 C 324.344 294.046,324.391 293.863,324.219 292.968 C 324.091 292.302,324.118 292.015,324.285 292.274 C 324.961 293.323,325.048 273.844,324.379 271.333 C 324.091 270.253,324.066 270.234,324.034 271.083 C 324.015 271.587,323.850 272.000,323.667 272.000 C 323.240 272.000,323.247 271.681,323.701 270.379 C 323.903 269.799,323.950 269.064,323.805 268.746 C 323.660 268.427,323.517 267.942,323.487 267.667 C 323.457 267.392,323.395 266.792,323.349 266.333 L 323.267 265.500 322.990 266.333 C 322.767 267.007,322.721 266.879,322.752 265.667 C 322.791 264.139,321.651 259.547,321.411 260.266 C 321.316 260.552,321.149 260.530,320.807 260.188 C 320.108 259.489,320.185 258.797,320.896 259.376 C 321.391 259.779,321.431 259.760,321.229 259.223 C 321.103 258.887,321.000 258.554,321.000 258.483 C 321.000 258.412,320.775 258.440,320.501 258.546 C 320.106 258.697,320.013 258.467,320.053 257.436 C 320.108 256.033,317.613 250.690,316.880 250.641 C 315.460 250.546,314.717 250.172,315.129 249.760 C 315.261 249.627,315.509 249.740,315.680 250.010 C 315.933 250.410,315.991 250.382,315.995 249.853 C 316.000 249.212,316.005 249.212,316.518 249.853 C 317.015 250.473,317.021 250.468,316.668 249.741 C 316.466 249.323,316.147 249.076,315.961 249.191 C 315.775 249.306,315.668 249.198,315.724 248.950 C 315.908 248.143,314.359 246.015,313.733 246.215 C 313.324 246.346,313.285 246.311,313.593 246.089 C 314.128 245.704,312.817 243.868,312.255 244.215 C 312.050 244.342,311.993 244.281,312.123 244.071 C 312.416 243.597,310.375 241.268,309.915 241.553 C 309.720 241.673,309.661 241.612,309.782 241.416 C 310.030 241.015,306.877 238.235,306.547 238.564 C 306.430 238.682,306.333 238.594,306.333 238.369 C 306.333 238.145,306.160 238.068,305.948 238.198 C 305.716 238.342,305.654 238.290,305.791 238.068 C 306.035 237.674,304.826 236.862,304.394 237.129 C 304.251 237.217,303.917 237.135,303.651 236.947 C 303.271 236.678,303.310 236.647,303.833 236.803 C 304.490 236.999,304.490 236.994,303.853 236.501 C 303.086 235.907,302.529 235.842,302.865 236.385 C 303.014 236.625,302.956 236.679,302.713 236.528 C 302.498 236.396,302.394 236.171,302.482 236.029 C 302.712 235.657,297.766 232.899,297.340 233.162 C 297.144 233.284,297.025 233.223,297.075 233.028 C 297.232 232.419,294.543 230.991,293.985 231.386 C 293.607 231.654,293.647 231.681,294.167 231.512 C 294.675 231.346,294.741 231.386,294.446 231.685 C 293.907 232.228,293.180 231.754,293.661 231.173 C 293.942 230.835,293.468 230.435,291.522 229.367 C 290.147 228.612,288.464 227.616,287.781 227.153 C 287.099 226.690,286.336 226.389,286.086 226.485 C 285.836 226.581,285.703 226.544,285.790 226.404 C 285.876 226.264,285.472 225.888,284.890 225.570 C 283.837 224.992,283.836 224.993,284.583 225.632 C 285.533 226.444,285.525 226.489,284.416 226.554 C 283.461 226.610,282.667 226.165,282.667 225.574 C 282.667 225.385,282.941 225.478,283.276 225.782 C 284.102 226.529,284.573 226.484,283.884 225.723 C 283.580 225.387,283.414 225.030,283.515 224.930 C 283.735 224.709,281.006 222.500,280.513 222.500 C 280.323 222.500,280.167 222.325,280.167 222.112 C 280.167 221.622,277.969 218.667,277.605 218.667 C 277.455 218.667,277.371 218.543,277.417 218.392 C 277.537 217.997,275.571 213.879,275.123 213.589 C 274.869 213.424,274.751 211.695,274.762 208.272 C 274.771 205.483,274.878 203.485,275.000 203.832 C 275.208 204.425,275.233 204.420,275.409 203.748 C 275.512 203.354,275.424 202.962,275.215 202.876 C 274.972 202.776,274.998 202.710,275.285 202.693 C 275.534 202.679,276.183 202.292,276.727 201.833 C 277.272 201.375,277.969 200.995,278.276 200.988 C 278.683 200.980,278.608 200.840,278.000 200.469 L 277.167 199.962 278.052 200.146 C 278.540 200.248,279.202 200.432,279.524 200.555 C 279.850 200.680,280.026 200.644,279.921 200.473 C 279.818 200.305,280.414 200.162,281.248 200.156 C 282.762 200.146,282.762 200.146,281.798 200.581 L 280.833 201.016 282.000 200.821 C 282.766 200.693,283.013 200.732,282.718 200.936 C 282.249 201.259,283.693 201.854,284.588 201.705 C 284.819 201.667,285.096 201.861,285.201 202.137 C 285.446 202.776,288.139 204.368,288.725 204.221 C 288.968 204.159,289.040 204.177,288.884 204.260 C 288.413 204.511,290.390 205.624,290.936 205.415 C 291.230 205.302,291.355 205.361,291.235 205.556 C 290.963 205.996,293.548 207.446,294.050 207.136 C 294.285 206.991,294.346 207.043,294.207 207.268 C 294.074 207.484,294.415 207.864,295.026 208.180 C 295.602 208.478,295.993 208.591,295.894 208.432 C 295.796 208.273,296.001 208.143,296.350 208.143 C 296.698 208.143,297.064 208.352,297.162 208.609 C 297.282 208.920,297.174 209.010,296.837 208.881 C 295.847 208.501,296.360 208.958,297.917 209.843 C 298.787 210.338,300.129 211.101,300.897 211.538 C 302.452 212.423,302.821 212.519,302.468 211.948 C 302.320 211.708,302.377 211.654,302.621 211.805 C 302.835 211.938,302.929 212.178,302.829 212.340 C 302.552 212.788,304.008 213.438,305.500 213.531 C 306.233 213.577,306.901 213.626,306.983 213.640 C 307.066 213.655,306.969 213.831,306.769 214.031 C 306.506 214.294,306.187 214.283,305.619 213.990 C 304.180 213.248,305.474 214.230,307.167 215.165 L 308.833 216.084 307.833 215.221 C 307.283 214.746,307.012 214.352,307.230 214.345 C 307.449 214.339,307.728 214.496,307.851 214.696 C 307.974 214.895,308.335 214.990,308.654 214.907 C 309.094 214.792,309.212 214.939,309.147 215.527 C 309.053 216.383,314.029 219.543,314.787 219.110 C 314.996 218.991,315.055 219.017,314.918 219.168 C 314.585 219.535,316.606 220.743,317.072 220.456 C 317.272 220.332,317.346 220.376,317.236 220.554 C 317.126 220.732,317.500 221.152,318.067 221.487 C 318.635 221.822,318.993 221.924,318.863 221.715 C 318.441 221.032,318.955 221.311,320.000 222.333 C 320.563 222.883,321.205 223.331,321.428 223.328 C 321.688 223.325,321.654 223.197,321.333 222.970 C 320.889 222.655,320.889 222.633,321.333 222.766 C 321.608 222.849,321.797 223.082,321.752 223.284 C 321.708 223.487,322.120 223.884,322.669 224.168 C 323.238 224.462,323.667 224.537,323.667 224.342 C 323.667 224.154,323.896 224.000,324.176 224.000 C 324.623 224.000,324.673 222.702,324.592 213.198 C 324.542 207.257,324.612 202.466,324.750 202.551 C 324.887 202.636,325.000 202.563,325.000 202.388 C 325.000 201.952,321.743 199.894,320.962 199.837 C 320.614 199.811,320.144 199.556,319.915 199.269 C 319.356 198.568,316.493 196.951,316.247 197.198 C 315.953 197.492,314.667 197.008,314.667 196.603 C 314.667 196.387,314.863 196.414,315.175 196.673 C 315.454 196.905,315.762 197.016,315.859 196.919 C 316.125 196.653,311.707 194.269,311.354 194.488 C 311.184 194.592,310.938 194.502,310.805 194.287 C 310.654 194.044,310.708 193.986,310.948 194.135 C 311.160 194.266,311.333 194.300,311.333 194.211 C 311.333 193.849,307.476 191.873,306.860 191.919 C 306.085 191.977,305.260 191.388,305.523 190.963 C 305.625 190.798,305.356 190.801,304.908 190.972 C 304.318 191.196,304.111 191.161,304.111 190.836 C 304.111 190.580,304.332 190.474,304.639 190.581 C 305.567 190.904,304.596 190.162,302.833 189.201 C 301.917 188.700,301.412 188.492,301.712 188.738 C 302.183 189.123,302.012 189.188,300.458 189.210 C 298.987 189.230,298.676 189.138,298.747 188.701 C 298.841 188.118,299.309 187.677,299.833 187.677 C 300.017 187.677,299.959 187.808,299.705 187.969 C 299.335 188.204,299.380 188.335,299.933 188.631 C 300.817 189.104,300.889 189.096,300.889 188.532 C 300.889 188.253,300.687 188.141,300.390 188.255 C 300.076 188.376,299.976 188.308,300.121 188.073 C 300.250 187.865,300.035 187.530,299.636 187.317 C 299.054 187.006,298.969 187.018,299.184 187.383 C 299.329 187.631,299.059 187.458,298.583 187.000 C 296.924 185.404,294.474 184.263,293.981 184.857 C 293.604 185.311,293.671 185.351,294.525 185.180 C 295.465 184.992,295.470 184.998,294.675 185.343 C 293.999 185.636,293.939 185.757,294.341 186.012 C 294.612 186.183,294.683 186.323,294.500 186.323 C 293.531 186.323,293.091 185.217,293.727 184.382 C 293.957 184.080,294.025 183.933,293.878 184.056 C 293.731 184.178,293.312 183.979,292.946 183.613 C 292.581 183.248,292.061 183.033,291.790 183.137 C 291.520 183.241,291.382 183.191,291.484 183.026 C 291.728 182.631,288.697 180.942,288.245 181.221 C 288.054 181.340,287.989 181.287,288.102 181.104 C 288.527 180.416,279.786 176.088,278.764 176.481 C 278.474 176.592,278.387 176.515,278.535 176.277 C 278.697 176.015,278.535 175.957,278.019 176.092 C 277.606 176.200,277.363 176.193,277.479 176.076 C 277.956 175.600,274.580 174.942,270.750 174.765 C 267.413 174.611,266.659 174.661,266.627 175.038 M264.500 175.333 C 263.651 175.698,264.527 175.698,265.667 175.333 C 266.337 175.119,266.369 175.065,265.833 175.057 C 265.467 175.051,264.867 175.176,264.500 175.333 M275.833 175.692 L 276.500 175.958 275.833 175.947 C 275.467 175.941,274.417 175.736,273.500 175.491 L 271.833 175.047 273.500 175.236 C 274.417 175.340,275.467 175.545,275.833 175.692 M180.177 176.650 C 180.069 176.824,180.323 177.132,180.741 177.335 C 181.437 177.673,181.450 177.663,180.899 177.219 C 180.447 176.855,180.406 176.691,180.732 176.560 C 181.027 176.442,181.039 176.377,180.770 176.360 C 180.551 176.345,180.285 176.476,180.177 176.650 M186.521 179.745 C 186.576 180.119,186.435 180.224,186.067 180.082 C 185.672 179.931,185.647 179.840,185.971 179.732 C 186.327 179.613,186.324 179.527,185.954 179.268 C 185.576 179.003,185.579 178.970,185.971 179.076 C 186.230 179.146,186.478 179.447,186.521 179.745 M192.569 183.417 C 192.489 183.829,192.424 183.492,192.424 182.667 C 192.424 181.842,192.489 181.504,192.569 181.917 C 192.648 182.329,192.648 183.004,192.569 183.417 M296.635 185.932 L 297.620 186.531 296.329 186.538 C 295.197 186.545,295.107 186.492,295.602 186.105 C 296.119 185.702,296.113 185.684,295.529 185.889 C 295.088 186.044,294.965 185.993,295.132 185.723 C 295.443 185.220,295.471 185.224,296.635 185.932 M254.902 196.750 C 254.822 197.162,254.757 196.825,254.757 196.000 C 254.757 195.175,254.822 194.838,254.902 195.250 C 254.981 195.662,254.981 196.338,254.902 196.750 M255.756 203.750 C 256.031 205.558,255.491 205.537,255.128 203.726 C 255.002 203.094,255.053 202.667,255.254 202.667 C 255.439 202.667,255.665 203.154,255.756 203.750 M187.667 205.080 C 187.667 205.219,187.417 205.333,187.111 205.333 C 186.806 205.333,186.654 205.235,186.775 205.114 C 186.896 204.993,186.808 204.669,186.580 204.394 C 186.215 203.952,186.255 203.948,186.917 204.360 C 187.329 204.617,187.667 204.941,187.667 205.080 M292.667 205.667 C 292.233 205.947,292.239 205.990,292.714 205.995 C 293.016 205.998,293.351 206.232,293.460 206.516 C 293.629 206.955,293.510 206.945,292.669 206.449 C 291.743 205.901,291.825 205.344,292.833 205.344 C 293.017 205.344,292.942 205.489,292.667 205.667 M176.002 209.680 C 176.141 210.436,176.141 210.929,176.004 210.777 C 175.710 210.452,175.269 207.825,175.557 208.112 C 175.664 208.219,175.864 208.925,176.002 209.680 M258.368 214.765 C 257.940 215.193,257.506 214.863,257.823 214.350 C 257.946 214.152,258.199 214.084,258.385 214.199 C 258.613 214.340,258.607 214.526,258.368 214.765 M195.392 217.462 C 195.479 218.202,195.395 218.542,195.151 218.448 C 194.746 218.292,194.624 216.333,195.019 216.333 C 195.152 216.333,195.320 216.841,195.392 217.462 M263.791 224.265 C 263.589 224.394,263.306 224.875,263.162 225.333 C 262.918 226.113,262.886 226.124,262.663 225.500 C 262.333 224.573,262.559 224.150,263.421 224.085 C 263.827 224.054,263.993 224.135,263.791 224.265 M324.083 224.750 C 324.159 224.979,324.475 225.189,324.784 225.216 C 325.219 225.254,325.231 225.230,324.836 225.108 C 324.555 225.021,324.411 224.811,324.516 224.641 C 324.620 224.472,324.535 224.333,324.325 224.333 C 324.116 224.333,324.007 224.521,324.083 224.750 M203.332 225.945 C 203.026 226.047,203.037 226.160,203.379 226.399 C 203.756 226.663,203.753 226.696,203.360 226.590 C 203.099 226.519,202.862 226.136,202.832 225.737 C 202.788 225.141,202.865 225.083,203.259 225.410 C 203.615 225.706,203.634 225.844,203.332 225.945 M213.190 225.944 C 213.190 226.281,213.028 226.556,212.829 226.556 C 212.630 226.556,212.446 226.281,212.421 225.944 C 212.395 225.608,212.558 225.333,212.783 225.333 C 213.007 225.333,213.190 225.608,213.190 225.944 M290.667 229.268 C 290.758 229.350,290.458 229.307,290.000 229.173 C 289.542 229.040,288.867 228.634,288.500 228.272 C 287.901 227.680,289.927 228.612,290.667 229.268 M185.328 231.120 C 185.323 231.518,184.882 230.964,184.303 229.833 C 184.035 229.309,184.109 229.335,184.648 229.954 C 185.025 230.386,185.331 230.911,185.328 231.120 M271.000 236.415 C 271.000 236.601,270.779 236.565,270.500 236.333 C 270.225 236.105,270.000 235.768,270.000 235.585 C 270.000 235.399,270.221 235.435,270.500 235.667 C 270.775 235.895,271.000 236.232,271.000 236.415 M277.179 241.667 C 277.179 242.400,277.167 243.000,277.152 243.000 C 277.137 243.000,276.684 242.529,276.146 241.954 L 275.167 240.908 276.083 241.492 C 276.587 241.814,277.000 241.922,277.000 241.733 C 277.000 241.544,276.813 241.313,276.583 241.220 C 276.270 241.093,276.290 240.963,276.667 240.697 C 276.942 240.503,277.170 240.341,277.173 240.338 C 277.177 240.336,277.179 240.933,277.179 241.667 M199.833 245.667 C 199.947 245.850,200.189 246.000,200.373 246.000 C 200.556 246.000,200.613 245.850,200.500 245.667 C 200.387 245.483,200.444 245.333,200.627 245.333 C 201.145 245.333,201.386 245.927,200.931 246.079 C 200.707 246.153,201.006 246.428,201.595 246.688 C 202.492 247.086,203.043 247.667,202.522 247.667 C 202.307 247.667,199.000 245.586,199.000 245.450 C 199.000 245.190,199.641 245.356,199.833 245.667 M282.146 245.860 C 282.789 246.503,282.485 247.207,281.807 246.645 C 281.551 246.432,281.422 246.127,281.521 245.966 C 281.620 245.806,281.469 245.764,281.184 245.873 C 280.899 245.982,280.667 245.905,280.667 245.702 C 280.667 245.160,281.539 245.253,282.146 245.860 M286.895 249.371 C 287.522 249.759,287.971 250.140,287.893 250.218 C 287.744 250.367,285.333 249.032,285.333 248.800 C 285.333 248.522,285.791 248.689,286.895 249.371 M318.095 253.567 C 318.004 253.805,318.090 254.000,318.287 254.000 C 318.484 254.000,318.550 254.249,318.433 254.553 C 318.179 255.216,317.693 254.160,317.487 252.500 L 317.363 251.500 317.812 252.317 C 318.059 252.766,318.186 253.328,318.095 253.567 M298.340 256.508 C 298.984 257.284,298.525 257.430,297.835 256.669 C 297.502 256.301,297.385 256.000,297.574 256.000 C 297.763 256.000,298.108 256.229,298.340 256.508 M254.916 273.250 C 254.860 275.954,254.814 273.742,254.814 268.333 C 254.814 262.925,254.860 260.712,254.916 263.417 C 254.972 266.121,254.972 270.546,254.916 273.250 M264.017 260.509 C 265.297 261.171,265.271 261.206,263.513 261.190 C 262.210 261.178,262.113 261.130,262.730 260.800 C 263.261 260.515,263.319 260.377,262.967 260.238 C 262.710 260.136,262.620 260.041,262.767 260.026 C 262.913 260.012,263.476 260.229,264.017 260.509 M273.140 266.435 C 272.852 266.596,272.528 266.639,272.419 266.531 C 272.311 266.422,272.414 266.333,272.648 266.333 C 272.882 266.333,272.720 266.022,272.287 265.642 L 271.500 264.951 272.582 265.547 C 273.471 266.036,273.570 266.194,273.140 266.435 M261.189 281.083 C 261.290 281.773,261.044 281.805,260.255 281.206 C 259.626 280.729,259.842 280.253,260.619 280.405 C 260.886 280.457,261.142 280.762,261.189 281.083 M323.364 295.695 L 323.042 296.500 323.021 295.639 C 323.010 295.165,323.109 294.668,323.243 294.535 C 323.639 294.139,323.711 294.828,323.364 295.695 M321.484 299.698 C 321.191 300.265,320.875 300.653,320.782 300.560 C 320.615 300.393,321.616 298.667,321.880 298.667 C 321.956 298.667,321.777 299.131,321.484 299.698 " stroke="none" fill="#bcbcc4" fill-rule="evenodd"></path><path id="path3" d="M60.792 51.301 C 57.397 53.813,54.388 57.912,52.936 62.000 L 52.167 64.167 52.060 94.833 C 51.988 115.808,52.073 126.817,52.331 129.667 C 54.349 151.946,67.088 171.408,85.500 180.336 C 91.525 183.258,98.130 184.353,101.329 182.961 L 102.492 182.454 104.133 184.811 C 105.770 187.161,110.735 193.047,111.890 194.006 C 112.226 194.285,113.538 195.393,114.807 196.468 C 127.735 207.422,141.200 209.922,147.531 202.543 C 152.923 196.260,153.307 193.008,153.322 153.548 C 153.334 120.726,153.303 121.345,155.157 117.686 C 156.405 115.223,158.960 112.051,161.027 110.396 C 163.187 108.668,163.253 108.882,160.000 107.100 C 158.992 106.548,157.241 105.549,156.111 104.881 C 154.980 104.213,153.942 103.667,153.803 103.667 C 153.665 103.667,153.316 103.463,153.026 103.213 C 152.737 102.964,151.600 102.275,150.500 101.682 C 149.400 101.088,148.350 100.482,148.167 100.333 C 147.983 100.185,146.933 99.575,145.833 98.978 C 144.733 98.381,143.712 97.689,143.563 97.439 C 142.825 96.204,137.214 101.768,135.229 105.705 C 132.966 110.190,133.012 109.412,133.006 143.436 C 133.000 175.353,132.978 175.868,131.566 178.262 C 128.050 184.223,116.832 176.977,113.614 166.667 L 112.833 164.167 112.833 131.667 C 112.833 100.892,112.866 99.069,113.452 97.333 C 114.744 93.503,117.783 89.241,121.082 86.633 L 122.689 85.363 121.928 84.887 C 121.509 84.624,118.092 82.645,114.333 80.488 C 110.575 78.330,106.397 75.907,105.049 75.102 L 102.597 73.639 100.773 75.046 C 97.585 77.506,95.047 80.967,93.579 84.856 L 92.833 86.833 92.655 119.333 C 92.459 155.201,92.578 153.347,90.309 155.733 C 86.789 159.433,78.052 154.399,74.377 146.554 C 72.242 141.997,72.300 143.144,72.405 107.500 L 72.500 75.167 73.582 72.500 C 74.904 69.243,77.347 65.925,80.005 63.777 C 82.494 61.766,82.748 62.238,77.583 59.275 C 75.154 57.881,70.767 55.355,67.833 53.662 C 64.900 51.969,62.406 50.530,62.292 50.464 C 62.177 50.399,61.502 50.776,60.792 51.301 " stroke="none" fill="#85858d" fill-rule="evenodd"></path><path id="path4" d="M212.100 66.248 C 213.713 66.310,216.263 66.309,217.766 66.248 C 219.270 66.186,217.950 66.136,214.833 66.136 C 211.717 66.137,210.487 66.187,212.100 66.248 M255.653 82.083 C 256.470 82.954,257.183 83.667,257.236 83.667 C 257.486 83.667,257.222 83.367,255.750 81.986 L 254.167 80.500 255.653 82.083 M224.500 96.529 L 223.500 97.388 224.583 96.672 C 225.179 96.277,225.667 95.890,225.667 95.811 C 225.667 95.561,225.526 95.648,224.500 96.529 M248.500 107.000 C 248.080 107.181,248.018 107.286,248.333 107.286 C 248.608 107.286,249.133 107.158,249.500 107.000 C 249.920 106.819,249.982 106.714,249.667 106.714 C 249.392 106.714,248.867 106.842,248.500 107.000 M267.000 110.833 C 267.622 111.475,268.206 112.000,268.297 112.000 C 268.389 112.000,267.955 111.475,267.333 110.833 C 266.711 110.192,266.128 109.667,266.036 109.667 C 265.944 109.667,266.378 110.192,267.000 110.833 M159.315 111.917 L 158.167 113.167 159.417 112.018 C 160.104 111.386,160.667 110.824,160.667 110.768 C 160.667 110.513,160.385 110.753,159.315 111.917 M268.751 114.500 C 268.754 115.233,268.823 115.494,268.902 115.079 C 268.982 114.665,268.979 114.065,268.896 113.746 C 268.812 113.427,268.747 113.767,268.751 114.500 M301.437 115.833 C 301.438 116.933,301.501 117.343,301.575 116.744 C 301.649 116.145,301.648 115.245,301.572 114.744 C 301.495 114.243,301.435 114.733,301.437 115.833 M223.975 143.520 C 223.962 143.692,223.885 144.187,223.805 144.620 C 223.676 145.319,223.755 145.384,224.510 145.194 C 225.068 145.054,225.537 145.156,225.871 145.490 C 226.329 145.948,226.318 146.000,225.765 146.000 C 224.816 146.000,223.540 147.007,223.958 147.425 C 224.200 147.667,224.730 147.493,225.693 146.855 C 226.962 146.015,227.125 145.983,227.612 146.469 C 227.904 146.761,227.984 147.000,227.789 147.000 C 227.595 147.000,227.104 147.287,226.700 147.638 C 226.296 147.988,225.635 148.506,225.232 148.787 C 224.699 149.160,224.639 149.303,225.013 149.316 C 225.675 149.338,228.046 148.131,228.370 147.607 C 228.749 146.994,230.859 148.207,232.623 150.053 C 233.918 151.408,234.170 151.545,234.590 151.124 C 235.010 150.704,235.206 150.743,236.119 151.429 C 236.695 151.862,237.466 152.327,237.831 152.462 C 238.473 152.700,238.469 152.728,237.692 153.314 L 236.889 153.920 237.612 154.149 C 238.078 154.297,238.519 154.195,238.852 153.863 C 239.362 153.352,241.062 154.123,242.577 155.553 C 242.932 155.887,244.571 155.794,244.236 155.458 C 244.168 155.390,241.800 154.009,238.973 152.390 C 226.593 145.296,224.810 144.236,224.417 143.735 C 224.188 143.444,223.989 143.347,223.975 143.520 M261.917 145.191 C 260.671 145.867,260.746 146.148,262.000 145.500 C 262.550 145.216,263.000 144.912,263.000 144.825 C 263.000 144.610,262.964 144.622,261.917 145.191 M234.889 152.556 C 234.235 153.209,234.677 153.933,235.497 153.552 C 235.954 153.340,236.329 152.979,236.331 152.750 C 236.333 152.314,235.273 152.171,234.889 152.556 M232.267 154.400 C 232.578 154.711,232.756 154.711,233.067 154.400 C 233.378 154.089,233.289 154.000,232.667 154.000 C 232.044 154.000,231.956 154.089,232.267 154.400 M239.833 155.667 C 239.472 156.252,240.013 156.676,241.022 156.599 C 242.164 156.512,242.152 156.533,241.476 155.857 C 240.880 155.261,240.137 155.175,239.833 155.667 M186.667 157.989 C 186.667 158.187,187.079 158.513,187.583 158.712 C 188.412 159.039,188.438 159.096,187.855 159.313 C 187.410 159.478,187.334 159.628,187.608 159.797 C 187.826 159.932,188.225 159.823,188.494 159.554 C 188.923 159.125,188.892 159.008,188.241 158.592 C 186.833 157.692,186.667 157.629,186.667 157.989 M237.639 160.064 C 237.535 160.448,237.463 161.667,237.544 161.667 C 237.888 161.667,238.290 160.346,238.001 160.167 C 237.817 160.054,237.654 160.007,237.639 160.064 M192.250 161.250 C 192.182 161.387,192.123 162.325,192.118 163.333 C 192.113 164.513,192.157 164.723,192.241 163.922 C 192.324 163.123,192.633 162.494,193.102 162.163 C 193.724 161.725,193.759 161.600,193.333 161.329 C 192.726 160.942,192.413 160.919,192.250 161.250 M193.303 162.583 C 193.185 163.555,193.376 184.487,193.504 184.616 C 193.594 184.705,193.667 179.728,193.667 173.556 C 193.667 164.398,193.541 160.622,193.303 162.583 M175.411 171.667 C 175.411 172.308,175.479 172.571,175.563 172.250 C 175.647 171.929,175.647 171.404,175.563 171.083 C 175.479 170.762,175.411 171.025,175.411 171.667 M233.826 203.167 C 233.826 219.667,233.867 226.368,233.917 218.058 C 233.966 209.749,233.966 196.249,233.917 188.058 C 233.867 179.868,233.826 186.667,233.826 203.167 M265.000 175.489 L 263.500 175.912 265.028 175.874 C 266.012 175.851,266.556 175.688,266.556 175.419 C 266.556 175.188,266.543 175.015,266.528 175.033 C 266.512 175.051,265.825 175.256,265.000 175.489 M273.500 175.491 C 274.417 175.736,275.467 175.941,275.833 175.947 L 276.500 175.958 275.833 175.692 C 275.467 175.545,274.417 175.340,273.500 175.236 L 271.833 175.047 273.500 175.491 M179.333 176.154 C 179.333 176.216,179.886 176.594,180.562 176.992 C 181.237 177.391,181.625 177.518,181.423 177.275 C 181.222 177.032,181.081 176.687,181.112 176.507 C 181.142 176.328,180.754 176.149,180.250 176.110 C 179.746 176.072,179.333 176.091,179.333 176.154 M185.954 179.268 C 186.324 179.527,186.327 179.613,185.971 179.732 C 185.647 179.840,185.672 179.931,186.067 180.082 C 186.435 180.224,186.576 180.119,186.521 179.745 C 186.478 179.447,186.230 179.146,185.971 179.076 C 185.579 178.970,185.576 179.003,185.954 179.268 M188.667 181.661 C 189.233 182.033,190.234 182.123,189.880 181.769 C 189.753 181.642,189.316 181.492,188.908 181.435 C 188.320 181.353,188.270 181.399,188.667 181.661 M192.424 182.667 C 192.424 183.492,192.489 183.829,192.569 183.417 C 192.648 183.004,192.648 182.329,192.569 181.917 C 192.489 181.504,192.424 181.842,192.424 182.667 M190.333 182.344 C 189.961 182.599,190.089 182.635,190.833 182.483 C 191.484 182.351,191.682 182.386,191.401 182.586 C 191.054 182.832,191.071 182.977,191.489 183.324 C 191.939 183.698,191.993 183.649,191.889 182.961 C 191.754 182.080,191.098 181.819,190.333 182.344 M293.455 185.021 C 293.455 185.888,294.171 186.607,294.603 186.175 C 294.699 186.079,294.594 186.000,294.369 186.000 C 294.145 186.000,294.053 185.850,294.167 185.667 C 294.280 185.483,294.598 185.333,294.873 185.333 C 295.170 185.333,295.275 185.492,295.132 185.723 C 294.965 185.993,295.088 186.044,295.529 185.889 C 296.113 185.684,296.119 185.702,295.602 186.105 C 295.107 186.492,295.198 186.545,296.334 186.538 L 297.630 186.531 296.311 185.744 C 295.407 185.205,294.758 185.032,294.249 185.194 C 293.609 185.396,293.564 185.358,293.928 184.920 C 294.271 184.507,294.266 184.379,293.902 184.239 C 293.592 184.120,293.455 184.360,293.455 185.021 M255.502 187.321 C 255.379 188.048,255.375 188.798,255.492 188.988 C 255.610 189.178,255.547 189.333,255.353 189.333 C 254.885 189.333,254.924 190.322,255.428 191.224 C 255.772 191.838,255.840 191.496,255.877 188.974 C 255.925 185.703,255.839 185.326,255.502 187.321 M298.975 187.470 C 299.217 187.761,299.279 188.000,299.112 188.000 C 298.945 188.000,298.788 188.278,298.762 188.617 C 298.722 189.149,298.961 189.231,300.505 189.209 C 301.489 189.195,302.266 189.158,302.231 189.127 C 301.642 188.609,298.660 187.090,298.975 187.470 M300.480 188.444 C 301.031 188.847,300.982 188.889,299.961 188.889 C 299.341 188.889,299.022 188.826,299.252 188.749 C 299.482 188.673,299.586 188.473,299.482 188.305 C 299.204 187.854,299.784 187.935,300.480 188.444 M304.111 190.838 C 304.111 191.076,304.317 191.191,304.568 191.094 C 304.819 190.998,305.311 191.178,305.660 191.494 C 306.009 191.810,306.491 191.990,306.731 191.894 C 307.014 191.780,306.963 191.710,306.583 191.693 C 306.262 191.679,306.000 191.531,306.000 191.366 C 306.000 191.201,305.575 190.917,305.056 190.736 C 304.335 190.485,304.111 190.509,304.111 190.838 M254.757 196.000 C 254.757 196.825,254.822 197.162,254.902 196.750 C 254.981 196.338,254.981 195.662,254.902 195.250 C 254.822 194.838,254.757 195.175,254.757 196.000 M314.667 196.676 C 314.667 196.965,315.961 197.484,316.168 197.277 C 316.232 197.212,315.921 196.988,315.476 196.778 C 315.031 196.568,314.667 196.522,314.667 196.676 M176.199 198.815 C 176.242 199.192,176.290 199.612,176.306 199.750 C 176.321 199.887,176.502 200.000,176.707 200.000 C 176.966 200.000,176.953 199.845,176.667 199.500 C 176.203 198.941,176.908 198.751,177.517 199.270 C 177.927 199.620,179.667 200.360,179.667 200.185 C 179.667 200.111,178.869 199.618,177.894 199.090 C 176.211 198.178,176.125 198.164,176.199 198.815 M277.667 200.333 C 277.942 200.511,278.467 200.648,278.833 200.638 L 279.500 200.620 278.833 200.333 C 277.837 199.905,277.004 199.905,277.667 200.333 M279.935 200.374 C 280.063 200.488,280.842 200.662,281.667 200.760 C 282.492 200.859,282.882 200.863,282.535 200.769 C 282.150 200.665,282.045 200.512,282.267 200.375 C 282.466 200.251,281.972 200.154,281.167 200.158 C 280.362 200.163,279.808 200.260,279.935 200.374 M181.768 201.810 C 182.223 202.156,182.263 202.314,181.934 202.463 C 181.695 202.572,181.832 202.579,182.237 202.478 C 182.643 202.378,183.280 202.460,183.654 202.660 C 184.028 202.860,184.333 202.946,184.333 202.852 C 184.333 202.644,181.801 201.329,181.430 201.344 C 181.285 201.350,181.437 201.560,181.768 201.810 M324.592 213.198 C 324.673 222.702,324.623 224.000,324.176 224.000 C 323.896 224.000,323.667 224.145,323.667 224.323 C 323.667 224.500,323.916 224.550,324.221 224.433 C 324.594 224.290,324.697 224.348,324.535 224.610 C 324.402 224.825,324.453 225.000,324.647 225.000 C 325.058 225.000,325.160 202.805,324.750 202.551 C 324.612 202.466,324.542 207.257,324.592 213.198 M255.128 203.726 C 255.491 205.537,256.031 205.558,255.756 203.750 C 255.665 203.154,255.439 202.667,255.254 202.667 C 255.053 202.667,255.002 203.094,255.128 203.726 M186.580 204.394 C 186.808 204.669,186.896 204.993,186.775 205.114 C 186.654 205.235,186.806 205.333,187.111 205.333 C 187.887 205.333,187.803 204.912,186.917 204.360 C 186.255 203.948,186.215 203.952,186.580 204.394 M292.090 205.604 C 291.805 205.785,291.980 206.041,292.669 206.449 C 293.510 206.945,293.629 206.955,293.460 206.516 C 293.351 206.232,293.016 205.998,292.714 205.995 C 292.239 205.990,292.233 205.947,292.667 205.667 C 292.942 205.489,293.017 205.344,292.833 205.344 C 292.650 205.344,292.316 205.461,292.090 205.604 M255.751 207.167 C 255.754 207.900,255.823 208.161,255.902 207.746 C 255.982 207.331,255.979 206.731,255.896 206.413 C 255.812 206.094,255.747 206.433,255.751 207.167 M175.558 209.209 C 175.665 209.919,175.866 210.625,176.004 210.777 C 176.141 210.929,176.141 210.436,176.002 209.680 C 175.679 207.911,175.300 207.509,175.558 209.209 M296.208 208.571 C 296.530 208.807,296.911 209.000,297.053 209.000 C 297.196 209.000,297.238 208.807,297.148 208.571 C 297.057 208.336,296.677 208.143,296.303 208.143 C 295.666 208.143,295.660 208.171,296.208 208.571 M274.667 212.480 C 274.667 212.928,274.790 213.370,274.940 213.463 C 275.090 213.556,275.148 213.189,275.069 212.649 C 274.894 211.458,274.667 211.362,274.667 212.480 M305.458 213.896 C 306.143 214.255,306.508 214.292,306.770 214.030 C 306.970 213.830,307.066 213.657,306.983 213.645 C 306.901 213.634,306.310 213.573,305.671 213.511 L 304.508 213.398 305.458 213.896 M257.823 214.350 C 257.506 214.863,257.940 215.193,258.368 214.765 C 258.607 214.526,258.613 214.340,258.385 214.199 C 258.199 214.084,257.946 214.152,257.823 214.350 M307.833 215.177 C 309.034 216.161,309.190 216.185,309.190 215.383 C 309.190 214.971,309.006 214.815,308.633 214.912 C 308.326 214.992,307.974 214.895,307.851 214.696 C 307.728 214.496,307.449 214.339,307.230 214.345 C 307.012 214.352,307.283 214.726,307.833 215.177 M258.209 216.242 C 258.442 217.526,258.629 217.586,258.595 216.368 C 258.578 215.799,258.448 215.333,258.305 215.333 C 258.161 215.333,258.118 215.742,258.209 216.242 M194.778 217.319 C 194.778 217.861,194.946 218.369,195.151 218.448 C 195.395 218.542,195.479 218.202,195.392 217.462 C 195.230 216.073,194.778 215.968,194.778 217.319 M259.333 218.973 C 259.333 219.580,259.745 220.333,260.076 220.333 C 260.276 220.333,260.250 220.134,260.012 219.848 C 259.791 219.581,259.706 219.206,259.824 219.015 C 259.943 218.823,259.880 218.667,259.686 218.667 C 259.492 218.667,259.333 218.804,259.333 218.973 M260.485 220.400 C 260.512 221.189,260.726 222.133,260.959 222.500 C 261.372 223.149,261.359 223.021,260.843 221.375 C 260.662 220.795,260.703 220.650,261.000 220.833 C 261.296 221.016,261.340 220.870,261.165 220.292 C 260.738 218.883,260.433 218.932,260.485 220.400 M262.083 224.532 C 262.404 224.910,262.668 225.357,262.669 225.526 C 262.670 225.695,262.960 226.271,263.312 226.806 L 263.953 227.779 263.894 226.243 C 263.839 224.824,263.802 224.763,263.403 225.437 C 262.981 226.152,262.977 226.150,263.198 225.333 C 263.322 224.875,263.589 224.394,263.791 224.265 C 263.993 224.135,263.823 224.055,263.412 224.086 C 263.002 224.117,262.667 224.278,262.667 224.445 C 262.667 224.612,262.404 224.545,262.083 224.297 C 261.528 223.866,261.528 223.878,262.083 224.532 M282.667 224.514 C 282.667 224.637,283.050 225.039,283.518 225.407 C 283.986 225.775,284.286 226.158,284.186 226.258 C 284.086 226.358,283.703 226.168,283.335 225.835 C 282.968 225.502,282.667 225.385,282.667 225.574 C 282.667 226.165,283.461 226.610,284.416 226.554 C 284.920 226.524,285.330 226.425,285.326 226.333 C 285.315 226.074,282.667 224.262,282.667 224.514 M202.832 225.737 C 202.862 226.136,203.099 226.519,203.360 226.590 C 203.753 226.696,203.756 226.663,203.379 226.399 C 203.037 226.160,203.026 226.047,203.332 225.945 C 203.634 225.844,203.615 225.706,203.259 225.410 C 202.865 225.083,202.788 225.141,202.832 225.737 M212.421 225.944 C 212.446 226.281,212.630 226.556,212.829 226.556 C 213.028 226.556,213.190 226.281,213.190 225.944 C 213.190 225.608,213.007 225.333,212.783 225.333 C 212.558 225.333,212.395 225.608,212.421 225.944 M288.500 228.272 C 288.867 228.634,289.542 229.040,290.000 229.173 C 291.020 229.471,290.880 229.335,289.167 228.367 C 287.990 227.702,287.912 227.691,288.500 228.272 M184.731 230.612 C 185.154 231.315,185.751 232.252,186.057 232.695 L 186.615 233.500 186.602 232.667 C 186.585 231.568,186.000 230.000,185.607 230.000 C 185.436 230.000,185.529 230.333,185.814 230.741 C 186.100 231.148,186.330 231.711,186.327 231.991 C 186.324 232.271,185.873 231.787,185.326 230.917 C 184.145 229.035,183.622 228.767,184.731 230.612 M265.667 230.333 C 266.058 230.883,266.413 231.333,266.455 231.333 C 266.660 231.333,266.465 229.687,266.232 229.454 C 266.085 229.307,266.060 229.482,266.176 229.843 C 266.375 230.459,266.358 230.464,265.907 229.917 C 265.100 228.937,264.908 229.268,265.667 230.333 M293.514 231.310 C 293.268 231.709,293.895 232.104,294.339 231.830 C 294.712 231.600,294.467 231.000,294.000 231.000 C 293.838 231.000,293.620 231.140,293.514 231.310 M233.374 235.167 C 233.347 235.533,233.247 236.208,233.153 236.667 L 232.981 237.500 233.338 236.682 C 233.535 236.233,233.634 235.558,233.560 235.182 C 233.428 234.518,233.423 234.517,233.374 235.167 M271.155 235.654 C 271.481 236.014,271.661 236.534,271.555 236.810 C 271.449 237.086,271.483 237.387,271.631 237.478 C 271.865 237.623,271.898 236.846,271.719 235.417 C 271.690 235.188,271.418 235.000,271.115 235.000 C 270.615 235.000,270.619 235.062,271.155 235.654 M270.000 235.585 C 270.000 235.768,270.225 236.105,270.500 236.333 C 270.779 236.565,271.000 236.601,271.000 236.415 C 271.000 236.232,270.775 235.895,270.500 235.667 C 270.221 235.435,270.000 235.399,270.000 235.585 M274.338 240.167 C 274.577 240.533,275.313 241.307,275.975 241.886 L 277.179 242.938 277.179 241.676 C 277.179 240.793,277.052 240.462,276.756 240.576 C 276.215 240.783,276.212 241.234,276.750 241.427 C 276.979 241.508,277.083 241.667,276.980 241.780 C 276.877 241.893,276.445 241.741,276.021 241.444 L 275.248 240.902 276.041 240.463 L 276.833 240.024 276.083 240.012 C 275.671 240.005,275.333 240.173,275.333 240.385 C 275.333 240.598,275.015 240.487,274.619 240.135 C 273.914 239.508,273.911 239.508,274.338 240.167 M199.000 245.450 C 199.000 245.586,202.307 247.667,202.522 247.667 C 203.043 247.667,202.492 247.086,201.595 246.688 C 201.006 246.428,200.707 246.153,200.931 246.079 C 201.386 245.927,201.145 245.333,200.627 245.333 C 200.444 245.333,200.387 245.483,200.500 245.667 C 200.613 245.850,200.556 246.000,200.373 246.000 C 200.189 246.000,199.947 245.850,199.833 245.667 C 199.641 245.356,199.000 245.190,199.000 245.450 M229.625 245.433 C 229.532 245.955,229.506 247.667,229.592 247.667 C 229.946 247.667,230.308 245.841,230.012 245.546 C 229.822 245.356,229.648 245.305,229.625 245.433 M280.667 245.702 C 280.667 245.905,280.899 245.982,281.184 245.873 C 281.469 245.764,281.620 245.806,281.521 245.966 C 281.422 246.127,281.551 246.432,281.807 246.645 C 282.485 247.207,282.789 246.503,282.146 245.860 C 281.539 245.253,280.667 245.160,280.667 245.702 M284.214 248.410 C 284.301 248.551,284.517 248.667,284.693 248.667 C 284.869 248.667,285.624 249.052,286.371 249.524 C 287.118 249.996,287.801 250.310,287.888 250.223 C 287.975 250.136,287.398 249.665,286.606 249.176 C 285.668 248.596,285.457 248.365,286.000 248.514 C 286.458 248.639,286.976 248.875,287.150 249.037 C 287.572 249.432,288.000 249.413,288.000 249.000 C 288.000 248.817,287.737 248.656,287.417 248.643 C 286.904 248.623,286.911 248.589,287.473 248.369 C 287.861 248.217,287.317 248.125,286.084 248.136 C 284.968 248.146,284.127 248.269,284.214 248.410 M315.833 249.501 C 315.995 250.234,315.963 250.370,315.712 250.010 C 315.524 249.740,315.261 249.627,315.129 249.760 C 314.791 250.097,315.107 250.337,316.139 250.524 L 317.027 250.685 316.448 249.759 C 315.605 248.413,315.592 248.407,315.833 249.501 M224.308 251.119 C 224.111 251.489,224.124 252.333,224.326 252.333 C 224.473 252.333,224.917 252.071,225.312 251.750 L 226.032 251.167 225.183 251.119 C 224.716 251.092,224.322 251.092,224.308 251.119 M317.487 252.500 C 317.693 254.160,318.179 255.216,318.433 254.553 C 318.550 254.249,318.484 254.000,318.287 254.000 C 318.090 254.000,318.004 253.805,318.095 253.567 C 318.186 253.328,318.059 252.766,317.812 252.317 L 317.363 251.500 317.487 252.500 M297.835 256.669 C 298.168 257.037,298.513 257.265,298.601 257.177 C 298.825 256.953,297.994 256.000,297.574 256.000 C 297.385 256.000,297.502 256.301,297.835 256.669 M320.023 257.750 C 320.011 258.254,320.150 258.667,320.333 258.667 C 320.725 258.667,320.725 258.410,320.333 257.500 C 320.079 256.909,320.044 256.938,320.023 257.750 M254.825 268.293 L 254.833 278.086 255.667 278.580 L 256.500 279.075 255.755 278.405 C 255.022 277.745,255.009 277.590,254.914 268.117 L 254.818 258.500 254.825 268.293 M261.333 259.279 C 261.333 259.448,261.798 259.778,262.366 260.014 C 263.354 260.423,263.369 260.457,262.712 260.809 C 262.121 261.125,262.232 261.178,263.515 261.190 C 264.334 261.198,264.890 261.108,264.752 260.990 C 264.000 260.352,261.333 259.017,261.333 259.279 M320.333 259.316 C 320.333 259.535,320.558 259.939,320.833 260.214 C 321.262 260.643,321.333 260.646,321.333 260.231 C 321.333 259.966,321.108 259.562,320.833 259.333 C 320.455 259.020,320.333 259.015,320.333 259.316 M302.250 261.573 C 302.479 261.655,302.667 261.926,302.667 262.175 C 302.667 262.969,303.224 263.005,303.575 262.234 C 303.886 261.553,303.826 261.487,302.874 261.456 C 302.302 261.438,302.021 261.491,302.250 261.573 M267.342 262.897 C 267.796 263.208,268.242 263.545,268.333 263.647 C 268.522 263.858,269.667 263.992,269.667 263.803 C 269.667 263.639,267.096 262.333,266.772 262.333 C 266.633 262.333,266.889 262.587,267.342 262.897 M303.502 263.327 C 303.387 263.690,303.422 264.217,303.580 264.499 C 303.783 264.863,303.867 264.670,303.867 263.839 C 303.867 262.497,303.797 262.398,303.502 263.327 M272.287 265.642 C 272.720 266.022,272.882 266.333,272.648 266.333 C 272.414 266.333,272.311 266.422,272.419 266.531 C 272.528 266.639,272.852 266.596,273.140 266.435 C 273.570 266.194,273.471 266.036,272.582 265.547 L 271.500 264.951 272.287 265.642 M322.744 266.000 C 322.744 266.642,322.813 266.904,322.896 266.583 C 322.980 266.262,322.980 265.737,322.896 265.417 C 322.813 265.096,322.744 265.358,322.744 266.000 M323.563 270.789 C 323.419 271.315,323.383 271.828,323.484 271.928 C 323.831 272.276,324.050 271.724,323.938 270.780 L 323.825 269.833 323.563 270.789 M302.903 278.761 C 302.375 279.171,301.221 279.581,300.236 279.707 L 298.500 279.931 300.667 279.920 C 303.134 279.908,304.000 279.753,304.000 279.321 C 304.000 279.156,303.737 279.117,303.417 279.234 C 302.893 279.425,302.898 279.372,303.468 278.723 C 304.261 277.820,304.098 277.831,302.903 278.761 M324.794 283.167 C 324.795 285.367,324.849 286.223,324.914 285.070 C 324.979 283.917,324.979 282.117,324.913 281.070 C 324.847 280.023,324.793 280.967,324.794 283.167 M259.906 280.539 C 259.780 280.665,259.937 280.965,260.255 281.206 C 261.044 281.805,261.290 281.773,261.189 281.083 C 261.100 280.478,260.304 280.140,259.906 280.539 M263.924 283.396 C 264.424 283.726,264.972 283.997,265.140 283.998 C 265.309 283.999,265.759 284.257,266.140 284.572 C 266.812 285.127,266.816 285.125,266.264 284.515 C 265.728 283.922,265.728 283.859,266.264 283.425 C 266.773 283.012,266.756 283.001,266.105 283.315 C 265.090 283.805,264.336 283.734,265.237 283.233 C 265.911 282.859,265.846 282.822,264.495 282.810 L 263.015 282.796 263.924 283.396 M323.404 294.344 C 323.182 294.700,323.011 295.330,323.023 295.745 C 323.041 296.301,323.173 296.156,323.525 295.196 C 324.061 293.732,324.010 293.373,323.404 294.344 M286.779 296.556 C 287.300 296.829,287.812 296.965,287.918 296.859 C 288.024 296.753,287.927 296.667,287.703 296.667 C 287.478 296.667,287.363 296.554,287.448 296.417 C 287.533 296.279,287.205 296.143,286.718 296.114 L 285.833 296.060 286.779 296.556 M290.694 298.775 C 292.042 299.831,293.190 300.256,293.190 299.700 C 293.190 299.303,293.002 299.149,292.633 299.246 C 292.326 299.326,291.974 299.228,291.851 299.029 C 291.728 298.830,291.386 298.667,291.091 298.667 C 290.797 298.667,290.618 298.716,290.694 298.775 M321.118 299.660 C 320.700 300.367,320.450 300.535,320.251 300.243 C 320.062 299.968,320.000 300.053,320.060 300.500 C 320.110 300.867,320.012 301.392,319.844 301.667 C 319.594 302.076,319.628 302.094,320.031 301.769 C 320.564 301.338,322.151 298.667,321.874 298.667 C 321.780 298.667,321.440 299.114,321.118 299.660 M295.753 301.703 C 297.429 302.656,298.607 302.993,298.534 302.501 C 298.426 301.763,298.190 301.639,296.620 301.500 C 295.529 301.403,295.313 301.453,295.753 301.703 M302.333 304.318 C 302.608 304.504,303.121 304.659,303.472 304.662 C 304.325 304.668,304.059 304.478,302.833 304.203 C 302.103 304.040,301.968 304.071,302.333 304.318 " stroke="none" fill="#c2bcb9" fill-rule="evenodd"></path></g></svg>